<mxfile host="app.diagrams.net" modified="2022-05-03T21:47:31.304Z" agent="5.0 (X11; Linux x86_64) AppleWebKit/537.36 (KHTML, like Gecko) Chrome/101.0.4951.41 Safari/537.36" etag="LxFLZYNCuB7324FRLqdi" version="16.6.4" type="github">
  <diagram id="hqRiYopjJ3fhep-TcIhG" name="Page-1">
    <mxGraphModel dx="2331" dy="2736" grid="1" gridSize="10" guides="1" tooltips="1" connect="1" arrows="1" fold="1" page="1" pageScale="1" pageWidth="1654" pageHeight="2336" math="0" shadow="0">
      <root>
        <mxCell id="0" />
        <mxCell id="1" parent="0" />
        <mxCell id="qM5BzymKofZII1lBp1W7-1" value="&lt;b&gt;PC&lt;/b&gt;" style="rounded=0;whiteSpace=wrap;html=1;" parent="1" vertex="1">
          <mxGeometry x="60" y="530" width="90" height="80" as="geometry" />
        </mxCell>
        <mxCell id="qM5BzymKofZII1lBp1W7-2" value="&lt;b&gt;Instruction [15:0]&lt;/b&gt;" style="rounded=0;whiteSpace=wrap;html=1;" parent="1" vertex="1">
          <mxGeometry x="200" y="530" width="120" height="160" as="geometry" />
        </mxCell>
        <mxCell id="qM5BzymKofZII1lBp1W7-3" value="&lt;b&gt;Read Address&lt;/b&gt;" style="text;html=1;strokeColor=none;fillColor=none;align=center;verticalAlign=middle;whiteSpace=wrap;rounded=0;" parent="1" vertex="1">
          <mxGeometry x="200" y="540" width="60" height="30" as="geometry" />
        </mxCell>
        <mxCell id="qM5BzymKofZII1lBp1W7-4" value="" style="endArrow=classic;html=1;rounded=0;exitX=1;exitY=0.25;exitDx=0;exitDy=0;entryX=-0.002;entryY=0.126;entryDx=0;entryDy=0;entryPerimeter=0;" parent="1" source="qM5BzymKofZII1lBp1W7-1" target="qM5BzymKofZII1lBp1W7-2" edge="1">
          <mxGeometry width="50" height="50" relative="1" as="geometry">
            <mxPoint x="160" y="520" as="sourcePoint" />
            <mxPoint x="210" y="470" as="targetPoint" />
          </mxGeometry>
        </mxCell>
        <mxCell id="qM5BzymKofZII1lBp1W7-5" value="&lt;b&gt;Adder&lt;/b&gt;" style="shape=trapezoid;perimeter=trapezoidPerimeter;whiteSpace=wrap;html=1;fixedSize=1;direction=south;" parent="1" vertex="1">
          <mxGeometry x="240" y="30" width="40" height="130" as="geometry" />
        </mxCell>
        <mxCell id="qM5BzymKofZII1lBp1W7-6" value="" style="endArrow=classic;html=1;rounded=0;entryX=0.25;entryY=1;entryDx=0;entryDy=0;" parent="1" target="qM5BzymKofZII1lBp1W7-5" edge="1">
          <mxGeometry width="50" height="50" relative="1" as="geometry">
            <mxPoint x="170" y="550" as="sourcePoint" />
            <mxPoint x="200" y="60" as="targetPoint" />
            <Array as="points">
              <mxPoint x="170" y="63" />
            </Array>
          </mxGeometry>
        </mxCell>
        <mxCell id="qM5BzymKofZII1lBp1W7-7" value="" style="endArrow=classic;html=1;rounded=0;entryX=0.75;entryY=1;entryDx=0;entryDy=0;exitX=0.974;exitY=0.371;exitDx=0;exitDy=0;exitPerimeter=0;" parent="1" source="qM5BzymKofZII1lBp1W7-22" target="qM5BzymKofZII1lBp1W7-5" edge="1">
          <mxGeometry width="50" height="50" relative="1" as="geometry">
            <mxPoint x="200" y="140" as="sourcePoint" />
            <mxPoint x="240" y="90" as="targetPoint" />
          </mxGeometry>
        </mxCell>
        <mxCell id="MyGf08Exmg5tDNtChvb7-2" value="" style="edgeStyle=orthogonalEdgeStyle;rounded=0;orthogonalLoop=1;jettySize=auto;html=1;" parent="1" source="qM5BzymKofZII1lBp1W7-8" target="qM5BzymKofZII1lBp1W7-171" edge="1">
          <mxGeometry relative="1" as="geometry">
            <Array as="points">
              <mxPoint x="990" y="145" />
              <mxPoint x="990" y="145" />
            </Array>
          </mxGeometry>
        </mxCell>
        <mxCell id="qM5BzymKofZII1lBp1W7-8" value="&lt;b&gt;Adder&lt;/b&gt;" style="shape=trapezoid;perimeter=trapezoidPerimeter;whiteSpace=wrap;html=1;fixedSize=1;direction=south;" parent="1" vertex="1">
          <mxGeometry x="815" y="100" width="70" height="90" as="geometry" />
        </mxCell>
        <mxCell id="qM5BzymKofZII1lBp1W7-9" value="" style="rounded=0;whiteSpace=wrap;html=1;" parent="1" vertex="1">
          <mxGeometry x="510" y="530" width="120" height="200" as="geometry" />
        </mxCell>
        <mxCell id="qM5BzymKofZII1lBp1W7-10" value="" style="edgeStyle=orthogonalEdgeStyle;rounded=0;orthogonalLoop=1;jettySize=auto;html=1;" parent="1" source="qM5BzymKofZII1lBp1W7-11" edge="1">
          <mxGeometry relative="1" as="geometry">
            <mxPoint x="510" y="650" as="targetPoint" />
            <Array as="points">
              <mxPoint x="510" y="650" />
              <mxPoint x="510" y="650" />
            </Array>
          </mxGeometry>
        </mxCell>
        <mxCell id="qM5BzymKofZII1lBp1W7-11" value="&lt;b&gt;MUX&lt;/b&gt;" style="rounded=1;whiteSpace=wrap;html=1;align=right;" parent="1" vertex="1">
          <mxGeometry x="430" y="610" width="50" height="130" as="geometry" />
        </mxCell>
        <mxCell id="qM5BzymKofZII1lBp1W7-12" value="&lt;b&gt;Read&lt;br&gt;register 1&lt;/b&gt;" style="text;html=1;strokeColor=none;fillColor=none;align=center;verticalAlign=middle;whiteSpace=wrap;rounded=0;" parent="1" vertex="1">
          <mxGeometry x="510" y="530" width="60" height="30" as="geometry" />
        </mxCell>
        <mxCell id="qM5BzymKofZII1lBp1W7-13" value="&lt;b&gt;Read&lt;br&gt;register 2&lt;/b&gt;" style="text;html=1;strokeColor=none;fillColor=none;align=center;verticalAlign=middle;whiteSpace=wrap;rounded=0;" parent="1" vertex="1">
          <mxGeometry x="510" y="580" width="60" height="30" as="geometry" />
        </mxCell>
        <mxCell id="qM5BzymKofZII1lBp1W7-14" value="&lt;b&gt;Write&lt;br&gt;register&lt;/b&gt;" style="text;html=1;strokeColor=none;fillColor=none;align=center;verticalAlign=middle;whiteSpace=wrap;rounded=0;" parent="1" vertex="1">
          <mxGeometry x="510" y="635" width="60" height="30" as="geometry" />
        </mxCell>
        <mxCell id="qM5BzymKofZII1lBp1W7-15" value="&lt;b&gt;Write&lt;br&gt;data&lt;/b&gt;" style="text;html=1;strokeColor=none;fillColor=none;align=center;verticalAlign=middle;whiteSpace=wrap;rounded=0;" parent="1" vertex="1">
          <mxGeometry x="510" y="690" width="60" height="30" as="geometry" />
        </mxCell>
        <mxCell id="qM5BzymKofZII1lBp1W7-16" value="&lt;b&gt;Read&lt;br&gt;data 1&lt;/b&gt;" style="text;html=1;strokeColor=none;fillColor=none;align=center;verticalAlign=middle;whiteSpace=wrap;rounded=0;" parent="1" vertex="1">
          <mxGeometry x="570" y="560" width="60" height="30" as="geometry" />
        </mxCell>
        <mxCell id="qM5BzymKofZII1lBp1W7-17" value="&lt;b&gt;Read&lt;br&gt;data 2&lt;/b&gt;" style="text;html=1;strokeColor=none;fillColor=none;align=center;verticalAlign=middle;whiteSpace=wrap;rounded=0;" parent="1" vertex="1">
          <mxGeometry x="570" y="620" width="60" height="30" as="geometry" />
        </mxCell>
        <mxCell id="qM5BzymKofZII1lBp1W7-18" value="" style="endArrow=classic;html=1;rounded=0;strokeWidth=2;" parent="1" edge="1">
          <mxGeometry width="50" height="50" relative="1" as="geometry">
            <mxPoint x="360" y="599" as="sourcePoint" />
            <mxPoint x="510" y="599" as="targetPoint" />
          </mxGeometry>
        </mxCell>
        <mxCell id="qM5BzymKofZII1lBp1W7-19" value="" style="endArrow=classic;html=1;rounded=0;strokeWidth=2;" parent="1" edge="1">
          <mxGeometry width="50" height="50" relative="1" as="geometry">
            <mxPoint x="360" y="550" as="sourcePoint" />
            <mxPoint x="510" y="550" as="targetPoint" />
          </mxGeometry>
        </mxCell>
        <mxCell id="qM5BzymKofZII1lBp1W7-20" value="" style="endArrow=classic;html=1;rounded=0;exitX=0.407;exitY=1.011;exitDx=0;exitDy=0;exitPerimeter=0;entryX=0;entryY=0.5;entryDx=0;entryDy=0;strokeWidth=2;" parent="1" source="qM5BzymKofZII1lBp1W7-57" target="qM5BzymKofZII1lBp1W7-87" edge="1">
          <mxGeometry width="50" height="50" relative="1" as="geometry">
            <mxPoint x="381.02" y="599.16" as="sourcePoint" />
            <mxPoint x="420" y="623" as="targetPoint" />
            <Array as="points">
              <mxPoint x="380" y="655" />
            </Array>
          </mxGeometry>
        </mxCell>
        <mxCell id="qM5BzymKofZII1lBp1W7-21" value="" style="endArrow=classic;html=1;rounded=0;entryX=-0.023;entryY=0.629;entryDx=0;entryDy=0;strokeWidth=2;entryPerimeter=0;" parent="1" target="qM5BzymKofZII1lBp1W7-88" edge="1">
          <mxGeometry width="50" height="50" relative="1" as="geometry">
            <mxPoint x="360" y="680" as="sourcePoint" />
            <mxPoint x="420" y="656" as="targetPoint" />
          </mxGeometry>
        </mxCell>
        <mxCell id="qM5BzymKofZII1lBp1W7-22" value="2" style="text;html=1;align=center;verticalAlign=middle;resizable=0;points=[];autosize=1;strokeColor=none;fillColor=none;" parent="1" vertex="1">
          <mxGeometry x="180" y="120" width="20" height="20" as="geometry" />
        </mxCell>
        <mxCell id="qM5BzymKofZII1lBp1W7-23" value="&lt;b&gt;0&lt;br&gt;&lt;br&gt;MUX&lt;br&gt;&lt;br&gt;1&lt;/b&gt;" style="rounded=1;whiteSpace=wrap;html=1;" parent="1" vertex="1">
          <mxGeometry x="1130" y="63" width="40" height="107" as="geometry" />
        </mxCell>
        <mxCell id="qM5BzymKofZII1lBp1W7-24" value="" style="endArrow=classic;html=1;rounded=0;entryX=-0.017;entryY=0.081;entryDx=0;entryDy=0;entryPerimeter=0;" parent="1" target="qM5BzymKofZII1lBp1W7-23" edge="1">
          <mxGeometry width="50" height="50" relative="1" as="geometry">
            <mxPoint x="600" y="130" as="sourcePoint" />
            <mxPoint x="950" y="90" as="targetPoint" />
            <Array as="points">
              <mxPoint x="600" y="70" />
            </Array>
          </mxGeometry>
        </mxCell>
        <mxCell id="qM5BzymKofZII1lBp1W7-25" value="" style="endArrow=classic;html=1;rounded=0;entryX=0;entryY=0.5;entryDx=0;entryDy=0;exitX=1;exitY=0.5;exitDx=0;exitDy=0;" parent="1" source="qM5BzymKofZII1lBp1W7-120" target="qM5BzymKofZII1lBp1W7-1" edge="1">
          <mxGeometry width="50" height="50" relative="1" as="geometry">
            <mxPoint x="1140" y="120" as="sourcePoint" />
            <mxPoint x="180" y="30" as="targetPoint" />
            <Array as="points">
              <mxPoint x="1440" y="140" />
              <mxPoint x="1440" y="20" />
              <mxPoint x="1240" y="20" />
              <mxPoint x="1040" y="20" />
              <mxPoint x="920" y="20" />
              <mxPoint x="40" y="20" />
              <mxPoint x="40" y="240" />
              <mxPoint x="40" y="370" />
              <mxPoint x="40" y="570" />
            </Array>
          </mxGeometry>
        </mxCell>
        <mxCell id="qM5BzymKofZII1lBp1W7-26" value="" style="endArrow=none;html=1;rounded=0;" parent="1" edge="1">
          <mxGeometry width="50" height="50" relative="1" as="geometry">
            <mxPoint x="360" y="670" as="sourcePoint" />
            <mxPoint x="360" y="550" as="targetPoint" />
          </mxGeometry>
        </mxCell>
        <mxCell id="qM5BzymKofZII1lBp1W7-27" value="" style="endArrow=none;html=1;rounded=0;exitX=1;exitY=0.5;exitDx=0;exitDy=0;" parent="1" source="qM5BzymKofZII1lBp1W7-2" edge="1">
          <mxGeometry width="50" height="50" relative="1" as="geometry">
            <mxPoint x="330" y="760" as="sourcePoint" />
            <mxPoint x="360" y="610" as="targetPoint" />
          </mxGeometry>
        </mxCell>
        <mxCell id="qM5BzymKofZII1lBp1W7-28" value="" style="endArrow=classic;html=1;rounded=0;entryX=0;entryY=0.5;entryDx=0;entryDy=0;strokeWidth=2;" parent="1" target="qM5BzymKofZII1lBp1W7-84" edge="1">
          <mxGeometry width="50" height="50" relative="1" as="geometry">
            <mxPoint x="360" y="670" as="sourcePoint" />
            <mxPoint x="536.99" y="789.9000000000001" as="targetPoint" />
            <Array as="points">
              <mxPoint x="360" y="810" />
            </Array>
          </mxGeometry>
        </mxCell>
        <mxCell id="qM5BzymKofZII1lBp1W7-29" value="" style="edgeStyle=orthogonalEdgeStyle;rounded=0;orthogonalLoop=1;jettySize=auto;html=1;" parent="1" source="qM5BzymKofZII1lBp1W7-30" target="qM5BzymKofZII1lBp1W7-31" edge="1">
          <mxGeometry relative="1" as="geometry">
            <Array as="points">
              <mxPoint x="750" y="655" />
              <mxPoint x="750" y="655" />
            </Array>
          </mxGeometry>
        </mxCell>
        <mxCell id="qM5BzymKofZII1lBp1W7-30" value="&lt;div&gt;&lt;b&gt;&lt;font style=&quot;font-size: 8px&quot;&gt;MUX&lt;/font&gt;&lt;/b&gt;&lt;/div&gt;" style="rounded=1;whiteSpace=wrap;html=1;align=right;" parent="1" vertex="1">
          <mxGeometry x="710" y="610" width="40" height="100" as="geometry" />
        </mxCell>
        <mxCell id="qM5BzymKofZII1lBp1W7-31" value="&lt;b&gt;ALU&lt;/b&gt;" style="shape=trapezoid;perimeter=trapezoidPerimeter;whiteSpace=wrap;html=1;fixedSize=1;direction=south;" parent="1" vertex="1">
          <mxGeometry x="780" y="550" width="80" height="140" as="geometry" />
        </mxCell>
        <mxCell id="qM5BzymKofZII1lBp1W7-32" value="" style="endArrow=classic;html=1;rounded=0;exitX=1.006;exitY=0.303;exitDx=0;exitDy=0;exitPerimeter=0;entryX=0.148;entryY=1.011;entryDx=0;entryDy=0;entryPerimeter=0;" parent="1" target="qM5BzymKofZII1lBp1W7-31" edge="1">
          <mxGeometry width="50" height="50" relative="1" as="geometry">
            <mxPoint x="630.3600000000001" y="570.0900000000001" as="sourcePoint" />
            <mxPoint x="758" y="570" as="targetPoint" />
          </mxGeometry>
        </mxCell>
        <mxCell id="qM5BzymKofZII1lBp1W7-33" value="" style="endArrow=classic;html=1;rounded=0;entryX=0;entryY=0.103;entryDx=0;entryDy=0;exitX=1;exitY=0;exitDx=0;exitDy=0;entryPerimeter=0;" parent="1" source="qM5BzymKofZII1lBp1W7-17" target="qM5BzymKofZII1lBp1W7-30" edge="1">
          <mxGeometry width="50" height="50" relative="1" as="geometry">
            <mxPoint x="550" y="610" as="sourcePoint" />
            <mxPoint x="600" y="560" as="targetPoint" />
          </mxGeometry>
        </mxCell>
        <mxCell id="qM5BzymKofZII1lBp1W7-34" value="" style="rounded=0;whiteSpace=wrap;html=1;" parent="1" vertex="1">
          <mxGeometry x="920" y="530" width="160" height="240" as="geometry" />
        </mxCell>
        <mxCell id="qM5BzymKofZII1lBp1W7-35" value="" style="endArrow=classic;html=1;rounded=0;entryX=0;entryY=0.5;entryDx=0;entryDy=0;exitX=0.71;exitY=-0.004;exitDx=0;exitDy=0;exitPerimeter=0;" parent="1" source="qM5BzymKofZII1lBp1W7-31" target="qM5BzymKofZII1lBp1W7-34" edge="1">
          <mxGeometry width="50" height="50" relative="1" as="geometry">
            <mxPoint x="810" y="800" as="sourcePoint" />
            <mxPoint x="860" y="750" as="targetPoint" />
          </mxGeometry>
        </mxCell>
        <mxCell id="qM5BzymKofZII1lBp1W7-36" value="" style="endArrow=classic;html=1;rounded=0;entryX=0;entryY=0.833;entryDx=0;entryDy=0;entryPerimeter=0;" parent="1" edge="1">
          <mxGeometry width="50" height="50" relative="1" as="geometry">
            <mxPoint x="640" y="620" as="sourcePoint" />
            <mxPoint x="920" y="727.9200000000001" as="targetPoint" />
            <Array as="points">
              <mxPoint x="640" y="728" />
            </Array>
          </mxGeometry>
        </mxCell>
        <mxCell id="qM5BzymKofZII1lBp1W7-37" value="&lt;b&gt;1&lt;br&gt;&lt;br&gt;MUX&lt;br&gt;&lt;br&gt;0&lt;/b&gt;" style="rounded=1;whiteSpace=wrap;html=1;" parent="1" vertex="1">
          <mxGeometry x="1180" y="580" width="40" height="120" as="geometry" />
        </mxCell>
        <mxCell id="qM5BzymKofZII1lBp1W7-38" value="" style="endArrow=classic;html=1;rounded=0;exitX=1.004;exitY=0.334;exitDx=0;exitDy=0;exitPerimeter=0;entryX=0;entryY=0.25;entryDx=0;entryDy=0;" parent="1" source="qM5BzymKofZII1lBp1W7-34" target="qM5BzymKofZII1lBp1W7-37" edge="1">
          <mxGeometry width="50" height="50" relative="1" as="geometry">
            <mxPoint x="1110" y="570" as="sourcePoint" />
            <mxPoint x="1160" y="520" as="targetPoint" />
          </mxGeometry>
        </mxCell>
        <mxCell id="qM5BzymKofZII1lBp1W7-39" value="" style="endArrow=classic;html=1;rounded=0;entryX=0;entryY=0.75;entryDx=0;entryDy=0;" parent="1" target="qM5BzymKofZII1lBp1W7-37" edge="1">
          <mxGeometry width="50" height="50" relative="1" as="geometry">
            <mxPoint x="880" y="650" as="sourcePoint" />
            <mxPoint x="1119.9999999999998" y="670" as="targetPoint" />
            <Array as="points">
              <mxPoint x="880" y="790" />
              <mxPoint x="1100" y="790" />
              <mxPoint x="1100" y="670" />
            </Array>
          </mxGeometry>
        </mxCell>
        <mxCell id="qM5BzymKofZII1lBp1W7-40" value="&lt;font color=&quot;#3333ff&quot;&gt;&lt;b&gt;ALU&lt;br&gt;control&lt;/b&gt;&lt;/font&gt;" style="ellipse;whiteSpace=wrap;html=1;" parent="1" vertex="1">
          <mxGeometry x="770" y="760" width="50" height="60" as="geometry" />
        </mxCell>
        <mxCell id="qM5BzymKofZII1lBp1W7-41" value="" style="endArrow=classic;html=1;rounded=0;entryX=0;entryY=0.5;entryDx=0;entryDy=0;strokeWidth=2;" parent="1" target="qM5BzymKofZII1lBp1W7-40" edge="1">
          <mxGeometry width="50" height="50" relative="1" as="geometry">
            <mxPoint x="360" y="860" as="sourcePoint" />
            <mxPoint x="590" y="840" as="targetPoint" />
            <Array as="points">
              <mxPoint x="360" y="850" />
              <mxPoint x="360" y="880" />
              <mxPoint x="720" y="880" />
              <mxPoint x="720" y="790" />
            </Array>
          </mxGeometry>
        </mxCell>
        <mxCell id="qM5BzymKofZII1lBp1W7-42" value="" style="endArrow=classic;html=1;rounded=0;exitX=1;exitY=0.5;exitDx=0;exitDy=0;entryX=0.911;entryY=0.403;entryDx=0;entryDy=0;entryPerimeter=0;strokeWidth=3;" parent="1" source="qM5BzymKofZII1lBp1W7-40" target="qM5BzymKofZII1lBp1W7-31" edge="1">
          <mxGeometry width="50" height="50" relative="1" as="geometry">
            <mxPoint x="800" y="900" as="sourcePoint" />
            <mxPoint x="850" y="850" as="targetPoint" />
            <Array as="points">
              <mxPoint x="828" y="790" />
            </Array>
          </mxGeometry>
        </mxCell>
        <mxCell id="qM5BzymKofZII1lBp1W7-43" value="&lt;b&gt;regFile&lt;/b&gt;" style="text;html=1;strokeColor=none;fillColor=none;align=center;verticalAlign=middle;whiteSpace=wrap;rounded=0;" parent="1" vertex="1">
          <mxGeometry x="570" y="700" width="60" height="30" as="geometry" />
        </mxCell>
        <mxCell id="qM5BzymKofZII1lBp1W7-44" value="&lt;font color=&quot;#3333ff&quot;&gt;RegDst[1:0]&lt;/font&gt;" style="text;html=1;strokeColor=none;fillColor=none;align=center;verticalAlign=middle;whiteSpace=wrap;rounded=0;" parent="1" vertex="1">
          <mxGeometry x="450" y="160" width="60" height="30" as="geometry" />
        </mxCell>
        <mxCell id="qM5BzymKofZII1lBp1W7-45" value="&lt;font color=&quot;#3333ff&quot;&gt;MemtoReg&lt;/font&gt;" style="text;html=1;strokeColor=none;fillColor=none;align=center;verticalAlign=middle;whiteSpace=wrap;rounded=0;" parent="1" vertex="1">
          <mxGeometry x="1140" y="550" width="60" height="30" as="geometry" />
        </mxCell>
        <mxCell id="qM5BzymKofZII1lBp1W7-46" value="" style="endArrow=classic;html=1;rounded=0;fontColor=#3333FF;entryX=0;entryY=0.5;entryDx=0;entryDy=0;exitX=1;exitY=0.5;exitDx=0;exitDy=0;" parent="1" source="qM5BzymKofZII1lBp1W7-93" target="qM5BzymKofZII1lBp1W7-15" edge="1">
          <mxGeometry width="50" height="50" relative="1" as="geometry">
            <mxPoint x="410" y="950" as="sourcePoint" />
            <mxPoint x="460" y="900" as="targetPoint" />
            <Array as="points">
              <mxPoint x="1400" y="610" />
              <mxPoint x="1400" y="910" />
              <mxPoint x="840" y="910" />
              <mxPoint x="490" y="910" />
              <mxPoint x="490" y="705" />
            </Array>
          </mxGeometry>
        </mxCell>
        <mxCell id="qM5BzymKofZII1lBp1W7-47" value="&lt;font color=&quot;#000000&quot;&gt;&lt;font style=&quot;font-size: 8px&quot;&gt;Branch_condition&lt;/font&gt;&lt;br&gt;&lt;/font&gt;" style="text;html=1;strokeColor=none;fillColor=none;align=center;verticalAlign=middle;whiteSpace=wrap;rounded=0;fontColor=#3333FF;" parent="1" vertex="1">
          <mxGeometry x="790" y="580" width="70" height="30" as="geometry" />
        </mxCell>
        <mxCell id="qM5BzymKofZII1lBp1W7-48" value="&lt;font color=&quot;#000000&quot;&gt;&lt;font style=&quot;font-size: 10px&quot;&gt;ALU_Out&lt;/font&gt;&lt;br&gt;&lt;/font&gt;" style="text;html=1;strokeColor=none;fillColor=none;align=center;verticalAlign=middle;whiteSpace=wrap;rounded=0;fontColor=#3333FF;" parent="1" vertex="1">
          <mxGeometry x="810" y="635" width="40" height="30" as="geometry" />
        </mxCell>
        <mxCell id="qM5BzymKofZII1lBp1W7-49" value="&lt;font color=&quot;#000000&quot;&gt;&lt;b&gt;Address&lt;/b&gt;&lt;br&gt;&lt;/font&gt;" style="text;html=1;strokeColor=none;fillColor=none;align=center;verticalAlign=middle;whiteSpace=wrap;rounded=0;fontColor=#3333FF;" parent="1" vertex="1">
          <mxGeometry x="920" y="635" width="60" height="30" as="geometry" />
        </mxCell>
        <mxCell id="qM5BzymKofZII1lBp1W7-50" value="&lt;b&gt;Data&lt;br&gt;Memory&lt;/b&gt;" style="text;html=1;strokeColor=none;fillColor=none;align=center;verticalAlign=middle;whiteSpace=wrap;rounded=0;fontColor=#000000;" parent="1" vertex="1">
          <mxGeometry x="1020" y="720" width="60" height="30" as="geometry" />
        </mxCell>
        <mxCell id="qM5BzymKofZII1lBp1W7-51" value="&lt;b&gt;Instruction&lt;br&gt;Memory&lt;/b&gt;" style="text;html=1;strokeColor=none;fillColor=none;align=center;verticalAlign=middle;whiteSpace=wrap;rounded=0;fontColor=#000000;" parent="1" vertex="1">
          <mxGeometry x="250" y="660" width="60" height="30" as="geometry" />
        </mxCell>
        <mxCell id="qM5BzymKofZII1lBp1W7-52" value="&lt;font color=&quot;#000000&quot;&gt;&lt;b&gt;Read&lt;br&gt;Data&lt;/b&gt;&lt;br&gt;&lt;/font&gt;" style="text;html=1;strokeColor=none;fillColor=none;align=center;verticalAlign=middle;whiteSpace=wrap;rounded=0;fontColor=#3333FF;" parent="1" vertex="1">
          <mxGeometry x="1020" y="595" width="60" height="30" as="geometry" />
        </mxCell>
        <mxCell id="qM5BzymKofZII1lBp1W7-53" value="&lt;font color=&quot;#000000&quot;&gt;&lt;b&gt;Write&lt;br&gt;Data&lt;/b&gt;&lt;br&gt;&lt;/font&gt;" style="text;html=1;strokeColor=none;fillColor=none;align=center;verticalAlign=middle;whiteSpace=wrap;rounded=0;fontColor=#3333FF;" parent="1" vertex="1">
          <mxGeometry x="910" y="720" width="60" height="30" as="geometry" />
        </mxCell>
        <mxCell id="qM5BzymKofZII1lBp1W7-54" value="Instr[15:11]" style="text;html=1;align=center;verticalAlign=middle;resizable=0;points=[];autosize=1;strokeColor=none;fillColor=none;" parent="1" vertex="1">
          <mxGeometry x="365" y="320" width="70" height="20" as="geometry" />
        </mxCell>
        <mxCell id="qM5BzymKofZII1lBp1W7-55" value="" style="endArrow=classic;html=1;rounded=0;entryX=0;entryY=0.5;entryDx=0;entryDy=0;" parent="1" target="qM5BzymKofZII1lBp1W7-63" edge="1">
          <mxGeometry width="50" height="50" relative="1" as="geometry">
            <mxPoint x="360" y="550" as="sourcePoint" />
            <mxPoint x="459.99999999999636" y="340" as="targetPoint" />
            <Array as="points">
              <mxPoint x="360" y="340" />
            </Array>
          </mxGeometry>
        </mxCell>
        <mxCell id="qM5BzymKofZII1lBp1W7-56" value="Instr[10:8]" style="text;html=1;align=center;verticalAlign=middle;resizable=0;points=[];autosize=1;strokeColor=none;fillColor=none;" parent="1" vertex="1">
          <mxGeometry x="355" y="530" width="70" height="20" as="geometry" />
        </mxCell>
        <mxCell id="qM5BzymKofZII1lBp1W7-57" value="Instr[7:5]" style="text;html=1;align=center;verticalAlign=middle;resizable=0;points=[];autosize=1;strokeColor=none;fillColor=none;" parent="1" vertex="1">
          <mxGeometry x="355" y="580" width="60" height="20" as="geometry" />
        </mxCell>
        <mxCell id="qM5BzymKofZII1lBp1W7-58" value="Instr[4:2]" style="text;html=1;align=center;verticalAlign=middle;resizable=0;points=[];autosize=1;strokeColor=none;fillColor=none;" parent="1" vertex="1">
          <mxGeometry x="355" y="660" width="60" height="20" as="geometry" />
        </mxCell>
        <mxCell id="qM5BzymKofZII1lBp1W7-59" value="&lt;font style=&quot;font-size: 10px&quot;&gt;Instr[10:0] 11-bit sign ext.&lt;/font&gt;" style="text;html=1;align=center;verticalAlign=middle;resizable=0;points=[];autosize=1;strokeColor=none;fillColor=none;" parent="1" vertex="1">
          <mxGeometry x="360" y="790" width="130" height="20" as="geometry" />
        </mxCell>
        <mxCell id="qM5BzymKofZII1lBp1W7-60" value="" style="verticalLabelPosition=bottom;shadow=0;dashed=0;align=center;html=1;verticalAlign=top;shape=mxgraph.electrical.logic_gates.logic_gate;operation=and;" parent="1" vertex="1">
          <mxGeometry x="920" y="251" width="60" height="39" as="geometry" />
        </mxCell>
        <mxCell id="qM5BzymKofZII1lBp1W7-61" value="" style="endArrow=none;html=1;rounded=0;exitX=1;exitY=0.5;exitDx=0;exitDy=0;strokeColor=#FF0000;entryX=0;entryY=0.75;entryDx=0;entryDy=0;entryPerimeter=0;" parent="1" source="qM5BzymKofZII1lBp1W7-47" target="qM5BzymKofZII1lBp1W7-60" edge="1">
          <mxGeometry width="50" height="50" relative="1" as="geometry">
            <mxPoint x="850" y="320" as="sourcePoint" />
            <mxPoint x="890" y="263" as="targetPoint" />
            <Array as="points">
              <mxPoint x="880" y="595" />
              <mxPoint x="880" y="280" />
            </Array>
          </mxGeometry>
        </mxCell>
        <mxCell id="qM5BzymKofZII1lBp1W7-62" value="" style="endArrow=none;html=1;rounded=0;strokeColor=#FF0000;entryX=0;entryY=0.25;entryDx=0;entryDy=0;entryPerimeter=0;exitX=0.999;exitY=0.285;exitDx=0;exitDy=0;exitPerimeter=0;" parent="1" source="qM5BzymKofZII1lBp1W7-63" target="qM5BzymKofZII1lBp1W7-60" edge="1">
          <mxGeometry width="50" height="50" relative="1" as="geometry">
            <mxPoint x="510" y="243" as="sourcePoint" />
            <mxPoint x="810" y="270" as="targetPoint" />
            <Array as="points">
              <mxPoint x="840" y="280" />
              <mxPoint x="840" y="260" />
            </Array>
          </mxGeometry>
        </mxCell>
        <mxCell id="qM5BzymKofZII1lBp1W7-63" value="&lt;b&gt;Control&lt;/b&gt;" style="rounded=1;whiteSpace=wrap;html=1;" parent="1" vertex="1">
          <mxGeometry x="440" y="200" width="70" height="280" as="geometry" />
        </mxCell>
        <mxCell id="qM5BzymKofZII1lBp1W7-64" value="&lt;font color=&quot;#3333ff&quot;&gt;Branch&lt;/font&gt;" style="text;html=1;strokeColor=none;fillColor=none;align=center;verticalAlign=middle;whiteSpace=wrap;rounded=0;" parent="1" vertex="1">
          <mxGeometry x="515" y="265" width="60" height="20" as="geometry" />
        </mxCell>
        <mxCell id="qM5BzymKofZII1lBp1W7-65" value="&lt;font&gt;MemRead&lt;/font&gt;" style="text;html=1;strokeColor=none;fillColor=none;align=center;verticalAlign=middle;whiteSpace=wrap;rounded=0;fontColor=#CC00CC;" parent="1" vertex="1">
          <mxGeometry x="515" y="338" width="65" height="30" as="geometry" />
        </mxCell>
        <mxCell id="qM5BzymKofZII1lBp1W7-66" value="&lt;font color=&quot;#3333ff&quot;&gt;ALUOp&lt;/font&gt;" style="text;html=1;strokeColor=none;fillColor=none;align=center;verticalAlign=middle;whiteSpace=wrap;rounded=0;" parent="1" vertex="1">
          <mxGeometry x="515" y="374" width="60" height="30" as="geometry" />
        </mxCell>
        <mxCell id="qM5BzymKofZII1lBp1W7-67" value="" style="endArrow=none;html=1;rounded=0;strokeColor=#FF0000;exitX=1.005;exitY=0.705;exitDx=0;exitDy=0;exitPerimeter=0;" parent="1" source="qM5BzymKofZII1lBp1W7-63" edge="1">
          <mxGeometry width="50" height="50" relative="1" as="geometry">
            <mxPoint x="570" y="420" as="sourcePoint" />
            <mxPoint x="800" y="760" as="targetPoint" />
            <Array as="points">
              <mxPoint x="760" y="397" />
              <mxPoint x="760" y="710" />
              <mxPoint x="800" y="710" />
              <mxPoint x="800" y="750" />
            </Array>
          </mxGeometry>
        </mxCell>
        <mxCell id="qM5BzymKofZII1lBp1W7-68" value="&lt;font color=&quot;#3333ff&quot;&gt;MemWrite&lt;/font&gt;" style="text;html=1;strokeColor=none;fillColor=none;align=center;verticalAlign=middle;whiteSpace=wrap;rounded=0;" parent="1" vertex="1">
          <mxGeometry x="515" y="360" width="60" height="30" as="geometry" />
        </mxCell>
        <mxCell id="qM5BzymKofZII1lBp1W7-69" value="" style="endArrow=none;html=1;rounded=0;strokeColor=#FF0000;entryX=0.5;entryY=0;entryDx=0;entryDy=0;exitX=1.016;exitY=0.646;exitDx=0;exitDy=0;exitPerimeter=0;" parent="1" source="qM5BzymKofZII1lBp1W7-63" target="qM5BzymKofZII1lBp1W7-34" edge="1">
          <mxGeometry width="50" height="50" relative="1" as="geometry">
            <mxPoint x="530" y="370" as="sourcePoint" />
            <mxPoint x="970" y="370" as="targetPoint" />
            <Array as="points">
              <mxPoint x="1000" y="381" />
            </Array>
          </mxGeometry>
        </mxCell>
        <mxCell id="qM5BzymKofZII1lBp1W7-70" value="&lt;font color=&quot;#3333ff&quot;&gt;ALUSrc&lt;/font&gt;" style="text;html=1;strokeColor=none;fillColor=none;align=center;verticalAlign=middle;whiteSpace=wrap;rounded=0;" parent="1" vertex="1">
          <mxGeometry x="520" y="404" width="60" height="30" as="geometry" />
        </mxCell>
        <mxCell id="qM5BzymKofZII1lBp1W7-71" value="" style="endArrow=none;html=1;rounded=0;strokeColor=#FF0000;exitX=1.01;exitY=0.807;exitDx=0;exitDy=0;entryX=0.5;entryY=0;entryDx=0;entryDy=0;strokeWidth=1;exitPerimeter=0;" parent="1" source="qM5BzymKofZII1lBp1W7-63" target="qM5BzymKofZII1lBp1W7-30" edge="1">
          <mxGeometry width="50" height="50" relative="1" as="geometry">
            <mxPoint x="540" y="460" as="sourcePoint" />
            <mxPoint x="590" y="410" as="targetPoint" />
            <Array as="points">
              <mxPoint x="730" y="426" />
            </Array>
          </mxGeometry>
        </mxCell>
        <mxCell id="qM5BzymKofZII1lBp1W7-72" value="" style="endArrow=none;html=1;rounded=0;strokeColor=#FF0000;exitX=1.006;exitY=0.856;exitDx=0;exitDy=0;exitPerimeter=0;entryX=0.75;entryY=0;entryDx=0;entryDy=0;" parent="1" source="qM5BzymKofZII1lBp1W7-63" target="qM5BzymKofZII1lBp1W7-9" edge="1">
          <mxGeometry width="50" height="50" relative="1" as="geometry">
            <mxPoint x="570" y="480" as="sourcePoint" />
            <mxPoint x="620" y="430" as="targetPoint" />
            <Array as="points">
              <mxPoint x="600" y="440" />
              <mxPoint x="600" y="480" />
            </Array>
          </mxGeometry>
        </mxCell>
        <mxCell id="qM5BzymKofZII1lBp1W7-73" value="&lt;font color=&quot;#3333ff&quot;&gt;RegWrite&lt;/font&gt;" style="text;html=1;strokeColor=none;fillColor=none;align=center;verticalAlign=middle;whiteSpace=wrap;rounded=0;" parent="1" vertex="1">
          <mxGeometry x="520" y="417" width="60" height="30" as="geometry" />
        </mxCell>
        <mxCell id="qM5BzymKofZII1lBp1W7-74" value="" style="endArrow=none;html=1;rounded=0;strokeColor=#FF0000;entryX=1.01;entryY=0.041;entryDx=0;entryDy=0;entryPerimeter=0;strokeWidth=4;" parent="1" target="qM5BzymKofZII1lBp1W7-63" edge="1">
          <mxGeometry width="50" height="50" relative="1" as="geometry">
            <mxPoint x="460" y="740" as="sourcePoint" />
            <mxPoint x="370" y="200" as="targetPoint" />
            <Array as="points">
              <mxPoint x="460" y="750" />
              <mxPoint x="340" y="750" />
              <mxPoint x="340" y="190" />
              <mxPoint x="430" y="190" />
              <mxPoint x="540" y="190" />
              <mxPoint x="540" y="211" />
            </Array>
          </mxGeometry>
        </mxCell>
        <mxCell id="qM5BzymKofZII1lBp1W7-75" value="" style="endArrow=none;html=1;rounded=0;strokeColor=#FF0000;exitX=1;exitY=0.5;exitDx=0;exitDy=0;entryX=0.5;entryY=0;entryDx=0;entryDy=0;" parent="1" source="qM5BzymKofZII1lBp1W7-63" target="qM5BzymKofZII1lBp1W7-37" edge="1">
          <mxGeometry width="50" height="50" relative="1" as="geometry">
            <mxPoint x="720" y="350" as="sourcePoint" />
            <mxPoint x="770" y="300" as="targetPoint" />
            <Array as="points">
              <mxPoint x="1200" y="340" />
            </Array>
          </mxGeometry>
        </mxCell>
        <mxCell id="qM5BzymKofZII1lBp1W7-76" value="&lt;font color=&quot;#3333ff&quot;&gt;PCSrc&lt;br&gt;(branch_jump_taken)&lt;br&gt;&lt;/font&gt;" style="text;html=1;strokeColor=none;fillColor=none;align=center;verticalAlign=middle;whiteSpace=wrap;rounded=0;" parent="1" vertex="1">
          <mxGeometry x="1030" y="226" width="120" height="30" as="geometry" />
        </mxCell>
        <mxCell id="qM5BzymKofZII1lBp1W7-77" value="Instr[1:0]" style="text;html=1;align=center;verticalAlign=middle;resizable=0;points=[];autosize=1;strokeColor=none;fillColor=none;" parent="1" vertex="1">
          <mxGeometry x="660" y="860" width="60" height="20" as="geometry" />
        </mxCell>
        <mxCell id="qM5BzymKofZII1lBp1W7-78" value="" style="endArrow=none;html=1;rounded=0;strokeColor=#FF0000;exitX=1.001;exitY=0.366;exitDx=0;exitDy=0;entryX=0.438;entryY=1.005;entryDx=0;entryDy=0;strokeWidth=4;entryPerimeter=0;exitPerimeter=0;" parent="1" source="qM5BzymKofZII1lBp1W7-63" target="qM5BzymKofZII1lBp1W7-82" edge="1">
          <mxGeometry width="50" height="50" relative="1" as="geometry">
            <mxPoint x="512.4700000000001" y="260.47999999999996" as="sourcePoint" />
            <mxPoint x="562.2900000000001" y="850.0999999999999" as="targetPoint" />
            <Array as="points">
              <mxPoint x="880" y="302" />
              <mxPoint x="1420" y="300" />
              <mxPoint x="1420" y="950" />
              <mxPoint x="810" y="950" />
              <mxPoint x="560" y="950" />
            </Array>
          </mxGeometry>
        </mxCell>
        <mxCell id="qM5BzymKofZII1lBp1W7-79" value="&lt;span style=&quot;color: rgb(51 , 51 , 255) ; font-family: &amp;#34;helvetica&amp;#34; ; font-size: 12px ; font-style: normal ; font-weight: 400 ; letter-spacing: normal ; text-align: center ; text-indent: 0px ; text-transform: none ; word-spacing: 0px ; background-color: rgb(248 , 249 , 250) ; display: inline ; float: none&quot;&gt;ext_select[2:0]&lt;/span&gt;" style="text;whiteSpace=wrap;html=1;" parent="1" vertex="1">
          <mxGeometry x="515" y="277" width="100" height="28" as="geometry" />
        </mxCell>
        <mxCell id="qM5BzymKofZII1lBp1W7-80" value="" style="endArrow=classic;html=1;rounded=0;strokeColor=#000000;exitX=1;exitY=0.5;exitDx=0;exitDy=0;entryX=0.668;entryY=0.993;entryDx=0;entryDy=0;entryPerimeter=0;" parent="1" source="qM5BzymKofZII1lBp1W7-84" target="qM5BzymKofZII1lBp1W7-8" edge="1">
          <mxGeometry width="50" height="50" relative="1" as="geometry">
            <mxPoint x="599.7796925738828" y="835.3110619177833" as="sourcePoint" />
            <mxPoint x="740" y="159.9999999999999" as="targetPoint" />
            <Array as="points">
              <mxPoint x="670" y="810" />
              <mxPoint x="670" y="160" />
            </Array>
          </mxGeometry>
        </mxCell>
        <mxCell id="qM5BzymKofZII1lBp1W7-81" value="2-bit" style="text;html=1;align=center;verticalAlign=middle;resizable=0;points=[];autosize=1;strokeColor=none;fillColor=none;" parent="1" vertex="1">
          <mxGeometry x="720" y="770" width="40" height="20" as="geometry" />
        </mxCell>
        <mxCell id="qM5BzymKofZII1lBp1W7-82" value="&lt;font style=&quot;font-size: 8px&quot;&gt;&lt;b&gt;Extended&lt;br&gt;MUX&lt;/b&gt;&lt;/font&gt;" style="rounded=1;whiteSpace=wrap;html=1;align=right;" parent="1" vertex="1">
          <mxGeometry x="530" y="750" width="70" height="120" as="geometry" />
        </mxCell>
        <mxCell id="qM5BzymKofZII1lBp1W7-83" value="000" style="text;html=1;strokeColor=none;fillColor=none;align=center;verticalAlign=middle;whiteSpace=wrap;rounded=0;fontSize=10;" parent="1" vertex="1">
          <mxGeometry x="530" y="756" width="20" height="30" as="geometry" />
        </mxCell>
        <mxCell id="qM5BzymKofZII1lBp1W7-84" value="010" style="text;html=1;strokeColor=none;fillColor=none;align=center;verticalAlign=middle;whiteSpace=wrap;rounded=0;fontSize=10;" parent="1" vertex="1">
          <mxGeometry x="530" y="795" width="20" height="30" as="geometry" />
        </mxCell>
        <mxCell id="qM5BzymKofZII1lBp1W7-85" value="&lt;font color=&quot;#3333ff&quot;&gt;Halt&lt;/font&gt;" style="text;html=1;strokeColor=none;fillColor=none;align=center;verticalAlign=middle;whiteSpace=wrap;rounded=0;" parent="1" vertex="1">
          <mxGeometry x="515" y="435" width="60" height="30" as="geometry" />
        </mxCell>
        <mxCell id="qM5BzymKofZII1lBp1W7-86" value="00" style="text;html=1;strokeColor=none;fillColor=none;align=center;verticalAlign=middle;whiteSpace=wrap;rounded=0;" parent="1" vertex="1">
          <mxGeometry x="429" y="610" width="20" height="30" as="geometry" />
        </mxCell>
        <mxCell id="qM5BzymKofZII1lBp1W7-87" value="01" style="text;html=1;strokeColor=none;fillColor=none;align=center;verticalAlign=middle;whiteSpace=wrap;rounded=0;" parent="1" vertex="1">
          <mxGeometry x="429" y="640" width="20" height="30" as="geometry" />
        </mxCell>
        <mxCell id="qM5BzymKofZII1lBp1W7-88" value="10" style="text;html=1;strokeColor=none;fillColor=none;align=center;verticalAlign=middle;whiteSpace=wrap;rounded=0;" parent="1" vertex="1">
          <mxGeometry x="429" y="665" width="20" height="25" as="geometry" />
        </mxCell>
        <mxCell id="qM5BzymKofZII1lBp1W7-89" value="11" style="text;html=1;strokeColor=none;fillColor=none;align=center;verticalAlign=middle;whiteSpace=wrap;rounded=0;" parent="1" vertex="1">
          <mxGeometry x="429" y="695" width="20" height="30" as="geometry" />
        </mxCell>
        <mxCell id="qM5BzymKofZII1lBp1W7-90" value="" style="endArrow=classic;html=1;rounded=0;strokeColor=#000000;strokeWidth=2;exitX=0.779;exitY=1.017;exitDx=0;exitDy=0;exitPerimeter=0;entryX=0;entryY=0.5;entryDx=0;entryDy=0;" parent="1" source="qM5BzymKofZII1lBp1W7-56" target="qM5BzymKofZII1lBp1W7-86" edge="1">
          <mxGeometry width="50" height="50" relative="1" as="geometry">
            <mxPoint x="190" y="790" as="sourcePoint" />
            <mxPoint x="240" y="740" as="targetPoint" />
            <Array as="points">
              <mxPoint x="410" y="625" />
            </Array>
          </mxGeometry>
        </mxCell>
        <mxCell id="qM5BzymKofZII1lBp1W7-91" value="" style="endArrow=classic;html=1;rounded=0;strokeColor=#000000;strokeWidth=2;entryX=0;entryY=0.5;entryDx=0;entryDy=0;exitX=0.197;exitY=1.016;exitDx=0;exitDy=0;exitPerimeter=0;" parent="1" source="qM5BzymKofZII1lBp1W7-101" target="qM5BzymKofZII1lBp1W7-89" edge="1">
          <mxGeometry width="50" height="50" relative="1" as="geometry">
            <mxPoint x="370" y="710" as="sourcePoint" />
            <mxPoint x="250" y="720" as="targetPoint" />
          </mxGeometry>
        </mxCell>
        <mxCell id="qM5BzymKofZII1lBp1W7-92" value="&lt;font color=&quot;#ff0000&quot; style=&quot;font-size: 10px&quot;&gt;Hardcoded 7&lt;/font&gt;" style="text;html=1;align=center;verticalAlign=middle;resizable=0;points=[];autosize=1;strokeColor=none;fillColor=none;" parent="1" vertex="1">
          <mxGeometry x="365" y="710" width="70" height="20" as="geometry" />
        </mxCell>
        <mxCell id="qM5BzymKofZII1lBp1W7-93" value="&lt;b&gt;1&lt;br&gt;&lt;br&gt;MUX&lt;br&gt;&lt;br&gt;0&lt;/b&gt;" style="rounded=1;whiteSpace=wrap;html=1;" parent="1" vertex="1">
          <mxGeometry x="1320" y="550" width="40" height="120" as="geometry" />
        </mxCell>
        <mxCell id="qM5BzymKofZII1lBp1W7-94" value="" style="endArrow=none;html=1;rounded=0;strokeColor=#000000;strokeWidth=1;entryX=0;entryY=0.25;entryDx=0;entryDy=0;" parent="1" target="qM5BzymKofZII1lBp1W7-93" edge="1">
          <mxGeometry width="50" height="50" relative="1" as="geometry">
            <mxPoint x="320" y="100" as="sourcePoint" />
            <mxPoint x="320" y="510" as="targetPoint" />
            <Array as="points">
              <mxPoint x="320" y="490" />
              <mxPoint x="1260" y="490" />
              <mxPoint x="1260" y="580" />
            </Array>
          </mxGeometry>
        </mxCell>
        <mxCell id="qM5BzymKofZII1lBp1W7-95" value="" style="endArrow=none;html=1;rounded=0;strokeColor=#000000;strokeWidth=1;exitX=1;exitY=0.5;exitDx=0;exitDy=0;entryX=0;entryY=0.75;entryDx=0;entryDy=0;" parent="1" source="qM5BzymKofZII1lBp1W7-37" target="qM5BzymKofZII1lBp1W7-93" edge="1">
          <mxGeometry width="50" height="50" relative="1" as="geometry">
            <mxPoint x="1240" y="670" as="sourcePoint" />
            <mxPoint x="1290" y="620" as="targetPoint" />
          </mxGeometry>
        </mxCell>
        <mxCell id="qM5BzymKofZII1lBp1W7-96" value="&lt;font color=&quot;#3333ff&quot;&gt;pc_to_reg&lt;/font&gt;" style="text;html=1;strokeColor=none;fillColor=none;align=center;verticalAlign=middle;whiteSpace=wrap;rounded=0;" parent="1" vertex="1">
          <mxGeometry x="1345" y="514" width="60" height="26" as="geometry" />
        </mxCell>
        <mxCell id="qM5BzymKofZII1lBp1W7-97" value="" style="endArrow=none;html=1;rounded=0;strokeColor=#FF0000;strokeWidth=1;fontColor=#000000;exitX=1.009;exitY=0.961;exitDx=0;exitDy=0;exitPerimeter=0;entryX=0.6;entryY=-0.008;entryDx=0;entryDy=0;entryPerimeter=0;" parent="1" source="qM5BzymKofZII1lBp1W7-63" target="qM5BzymKofZII1lBp1W7-93" edge="1">
          <mxGeometry width="50" height="50" relative="1" as="geometry">
            <mxPoint x="500" y="530" as="sourcePoint" />
            <mxPoint x="550" y="480" as="targetPoint" />
            <Array as="points">
              <mxPoint x="1344" y="469" />
            </Array>
          </mxGeometry>
        </mxCell>
        <mxCell id="qM5BzymKofZII1lBp1W7-98" value="pcAdd2" style="text;html=1;align=center;verticalAlign=middle;resizable=0;points=[];autosize=1;strokeColor=none;fillColor=none;" parent="1" vertex="1">
          <mxGeometry x="280" y="75" width="60" height="20" as="geometry" />
        </mxCell>
        <mxCell id="qM5BzymKofZII1lBp1W7-100" value="&lt;font color=&quot;#3333ff&quot;&gt;Jump&lt;/font&gt;" style="text;html=1;strokeColor=none;fillColor=none;align=center;verticalAlign=middle;whiteSpace=wrap;rounded=0;" parent="1" vertex="1">
          <mxGeometry x="515" y="252" width="60" height="20" as="geometry" />
        </mxCell>
        <mxCell id="qM5BzymKofZII1lBp1W7-101" value="3&#39;b111" style="text;html=1;align=center;verticalAlign=middle;resizable=0;points=[];autosize=1;strokeColor=none;fillColor=none;" parent="1" vertex="1">
          <mxGeometry x="370" y="690" width="50" height="20" as="geometry" />
        </mxCell>
        <mxCell id="qM5BzymKofZII1lBp1W7-102" value="001" style="text;html=1;strokeColor=none;fillColor=none;align=center;verticalAlign=middle;whiteSpace=wrap;rounded=0;fontSize=10;" parent="1" vertex="1">
          <mxGeometry x="530" y="775" width="20" height="30" as="geometry" />
        </mxCell>
        <mxCell id="qM5BzymKofZII1lBp1W7-103" value="011" style="text;html=1;strokeColor=none;fillColor=none;align=center;verticalAlign=middle;whiteSpace=wrap;rounded=0;fontSize=10;" parent="1" vertex="1">
          <mxGeometry x="530" y="820" width="20" height="30" as="geometry" />
        </mxCell>
        <mxCell id="qM5BzymKofZII1lBp1W7-104" value="100" style="text;html=1;strokeColor=none;fillColor=none;align=center;verticalAlign=middle;whiteSpace=wrap;rounded=0;fontSize=10;" parent="1" vertex="1">
          <mxGeometry x="530" y="840" width="20" height="30" as="geometry" />
        </mxCell>
        <mxCell id="qM5BzymKofZII1lBp1W7-105" value="" style="endArrow=classic;html=1;rounded=0;fontSize=8;fontColor=#FF0000;strokeColor=#FF8000;entryX=-0.023;entryY=0.68;entryDx=0;entryDy=0;entryPerimeter=0;" parent="1" target="qM5BzymKofZII1lBp1W7-30" edge="1">
          <mxGeometry width="50" height="50" relative="1" as="geometry">
            <mxPoint x="670" y="810" as="sourcePoint" />
            <mxPoint x="680" y="820" as="targetPoint" />
            <Array as="points">
              <mxPoint x="680" y="810" />
              <mxPoint x="680" y="678" />
            </Array>
          </mxGeometry>
        </mxCell>
        <mxCell id="qM5BzymKofZII1lBp1W7-106" value="0" style="text;html=1;strokeColor=none;fillColor=none;align=center;verticalAlign=middle;whiteSpace=wrap;rounded=0;" parent="1" vertex="1">
          <mxGeometry x="710" y="610" width="20" height="30" as="geometry" />
        </mxCell>
        <mxCell id="qM5BzymKofZII1lBp1W7-107" value="1" style="text;html=1;strokeColor=none;fillColor=none;align=center;verticalAlign=middle;whiteSpace=wrap;rounded=0;" parent="1" vertex="1">
          <mxGeometry x="710" y="670" width="20" height="30" as="geometry" />
        </mxCell>
        <mxCell id="qM5BzymKofZII1lBp1W7-108" value="" style="endArrow=classic;html=1;rounded=0;fontSize=8;fontColor=#000000;strokeColor=#FF8000;strokeWidth=2;entryX=0;entryY=0.5;entryDx=0;entryDy=0;" parent="1" edge="1">
          <mxGeometry width="50" height="50" relative="1" as="geometry">
            <mxPoint x="360" y="770" as="sourcePoint" />
            <mxPoint x="530" y="770" as="targetPoint" />
          </mxGeometry>
        </mxCell>
        <mxCell id="qM5BzymKofZII1lBp1W7-109" value="" style="endArrow=classic;html=1;rounded=0;fontSize=8;fontColor=#000000;strokeColor=#000000;strokeWidth=2;entryX=0;entryY=0.5;entryDx=0;entryDy=0;exitX=0;exitY=1.017;exitDx=0;exitDy=0;exitPerimeter=0;" parent="1" source="qM5BzymKofZII1lBp1W7-110" target="qM5BzymKofZII1lBp1W7-102" edge="1">
          <mxGeometry width="50" height="50" relative="1" as="geometry">
            <mxPoint x="360" y="780" as="sourcePoint" />
            <mxPoint x="270" y="780" as="targetPoint" />
          </mxGeometry>
        </mxCell>
        <mxCell id="qM5BzymKofZII1lBp1W7-110" value="&lt;font style=&quot;font-size: 10px&quot;&gt;Instr[7:0] 8-bit sign ext.&lt;/font&gt;" style="text;html=1;align=center;verticalAlign=middle;resizable=0;points=[];autosize=1;strokeColor=none;fillColor=none;" parent="1" vertex="1">
          <mxGeometry x="360" y="770" width="120" height="20" as="geometry" />
        </mxCell>
        <mxCell id="qM5BzymKofZII1lBp1W7-111" value="&lt;font style=&quot;font-size: 10px&quot;&gt;Instr[4:0] 5-bit sign ext.&lt;/font&gt;" style="text;html=1;align=center;verticalAlign=middle;resizable=0;points=[];autosize=1;strokeColor=none;fillColor=none;" parent="1" vertex="1">
          <mxGeometry x="360" y="750" width="120" height="20" as="geometry" />
        </mxCell>
        <mxCell id="qM5BzymKofZII1lBp1W7-112" value="" style="endArrow=classic;html=1;rounded=0;fontSize=8;fontColor=#000000;strokeColor=#FF8000;strokeWidth=2;entryX=0;entryY=0.5;entryDx=0;entryDy=0;" parent="1" edge="1">
          <mxGeometry width="50" height="50" relative="1" as="geometry">
            <mxPoint x="360" y="810" as="sourcePoint" />
            <mxPoint x="530" y="834.8200000000002" as="targetPoint" />
            <Array as="points">
              <mxPoint x="360" y="835" />
            </Array>
          </mxGeometry>
        </mxCell>
        <mxCell id="qM5BzymKofZII1lBp1W7-113" value="" style="endArrow=classic;html=1;rounded=0;fontSize=8;fontColor=#000000;strokeColor=#FF8000;strokeWidth=2;entryX=0;entryY=0.5;entryDx=0;entryDy=0;exitX=0;exitY=0.989;exitDx=0;exitDy=0;exitPerimeter=0;" parent="1" source="qM5BzymKofZII1lBp1W7-114" edge="1">
          <mxGeometry width="50" height="50" relative="1" as="geometry">
            <mxPoint x="360" y="854.8199999999999" as="sourcePoint" />
            <mxPoint x="530" y="854.8199999999999" as="targetPoint" />
            <Array as="points">
              <mxPoint x="360" y="855" />
            </Array>
          </mxGeometry>
        </mxCell>
        <mxCell id="qM5BzymKofZII1lBp1W7-114" value="&lt;font style=&quot;font-size: 10px&quot;&gt;Instr[4:0] 5-bit zero ext.&lt;/font&gt;" style="text;html=1;align=center;verticalAlign=middle;resizable=0;points=[];autosize=1;strokeColor=none;fillColor=none;" parent="1" vertex="1">
          <mxGeometry x="360" y="816" width="120" height="20" as="geometry" />
        </mxCell>
        <mxCell id="qM5BzymKofZII1lBp1W7-115" value="&lt;font style=&quot;font-size: 10px&quot;&gt;Instr[7:0] 8-bit zero ext.&lt;/font&gt;" style="text;html=1;align=center;verticalAlign=middle;resizable=0;points=[];autosize=1;strokeColor=none;fillColor=none;" parent="1" vertex="1">
          <mxGeometry x="360" y="836" width="120" height="20" as="geometry" />
        </mxCell>
        <mxCell id="qM5BzymKofZII1lBp1W7-116" value="" style="endArrow=none;html=1;rounded=0;fontSize=10;fontColor=#660066;strokeColor=#CC00CC;strokeWidth=1;entryX=1.019;entryY=0.568;entryDx=0;entryDy=0;entryPerimeter=0;exitX=0.625;exitY=0;exitDx=0;exitDy=0;exitPerimeter=0;" parent="1" source="qM5BzymKofZII1lBp1W7-34" target="qM5BzymKofZII1lBp1W7-63" edge="1">
          <mxGeometry width="50" height="50" relative="1" as="geometry">
            <mxPoint x="980" y="320" as="sourcePoint" />
            <mxPoint x="110" y="790" as="targetPoint" />
            <Array as="points">
              <mxPoint x="1020" y="359" />
            </Array>
          </mxGeometry>
        </mxCell>
        <mxCell id="qM5BzymKofZII1lBp1W7-117" value="&lt;font color=&quot;#ff0000&quot;&gt;Rd/Wr enable&lt;/font&gt;" style="text;html=1;strokeColor=none;fillColor=none;align=center;verticalAlign=middle;whiteSpace=wrap;rounded=0;fontSize=10;fontColor=#000000;" parent="1" vertex="1">
          <mxGeometry x="980" y="530" width="60" height="30" as="geometry" />
        </mxCell>
        <mxCell id="qM5BzymKofZII1lBp1W7-118" value="" style="endArrow=none;html=1;rounded=0;fontSize=10;fontColor=#FF0000;strokeColor=#FF0000;strokeWidth=3;entryX=1.017;entryY=0.918;entryDx=0;entryDy=0;entryPerimeter=0;exitX=0.25;exitY=0;exitDx=0;exitDy=0;" parent="1" source="qM5BzymKofZII1lBp1W7-34" target="qM5BzymKofZII1lBp1W7-63" edge="1">
          <mxGeometry width="50" height="50" relative="1" as="geometry">
            <mxPoint x="640" y="451" as="sourcePoint" />
            <mxPoint x="310" y="400" as="targetPoint" />
            <Array as="points">
              <mxPoint x="960" y="457" />
            </Array>
          </mxGeometry>
        </mxCell>
        <mxCell id="qM5BzymKofZII1lBp1W7-119" value="createdump" style="text;html=1;strokeColor=none;fillColor=none;align=center;verticalAlign=middle;whiteSpace=wrap;rounded=0;fontSize=10;fontColor=#FF0000;" parent="1" vertex="1">
          <mxGeometry x="930" y="530" width="60" height="30" as="geometry" />
        </mxCell>
        <mxCell id="qM5BzymKofZII1lBp1W7-120" value="&lt;b&gt;0&lt;br&gt;&lt;br&gt;MUX&lt;br&gt;&lt;br&gt;1&lt;/b&gt;" style="rounded=1;whiteSpace=wrap;html=1;" parent="1" vertex="1">
          <mxGeometry x="1330" y="80" width="40" height="120" as="geometry" />
        </mxCell>
        <mxCell id="qM5BzymKofZII1lBp1W7-121" value="" style="endArrow=none;html=1;rounded=0;fontSize=10;fontColor=#FF0000;strokeColor=#FF0000;strokeWidth=3;entryX=0.5;entryY=1;entryDx=0;entryDy=0;" parent="1" target="qM5BzymKofZII1lBp1W7-120" edge="1">
          <mxGeometry width="50" height="50" relative="1" as="geometry">
            <mxPoint x="960" y="457" as="sourcePoint" />
            <mxPoint x="1329.64" y="207.01000000000022" as="targetPoint" />
            <Array as="points">
              <mxPoint x="1350" y="460" />
            </Array>
          </mxGeometry>
        </mxCell>
        <mxCell id="qM5BzymKofZII1lBp1W7-123" value="" style="endArrow=classic;html=1;rounded=0;fontSize=10;fontColor=#FF0000;strokeColor=#FF8000;strokeWidth=2;entryX=-0.008;entryY=0.864;entryDx=0;entryDy=0;entryPerimeter=0;" parent="1" target="qM5BzymKofZII1lBp1W7-120" edge="1">
          <mxGeometry width="50" height="50" relative="1" as="geometry">
            <mxPoint x="170" y="180" as="sourcePoint" />
            <mxPoint x="250" y="310" as="targetPoint" />
          </mxGeometry>
        </mxCell>
        <mxCell id="qM5BzymKofZII1lBp1W7-124" value="&lt;font color=&quot;#ff8000&quot;&gt;pcCurrent&lt;/font&gt;" style="text;html=1;align=center;verticalAlign=middle;resizable=0;points=[];autosize=1;strokeColor=none;fillColor=none;fontSize=10;fontColor=#FF0000;" parent="1" vertex="1">
          <mxGeometry x="1240" y="150" width="60" height="20" as="geometry" />
        </mxCell>
        <mxCell id="qM5BzymKofZII1lBp1W7-126" value="" style="endArrow=none;html=1;rounded=0;fontSize=10;fontColor=#FF8000;strokeColor=#FF0000;strokeWidth=1;exitX=1;exitY=0.5;exitDx=0;exitDy=0;exitPerimeter=0;entryX=0;entryY=0.75;entryDx=0;entryDy=0;entryPerimeter=0;" parent="1" source="qM5BzymKofZII1lBp1W7-60" target="qM5BzymKofZII1lBp1W7-130" edge="1">
          <mxGeometry width="50" height="50" relative="1" as="geometry">
            <mxPoint x="980" y="250" as="sourcePoint" />
            <mxPoint x="1025" y="261" as="targetPoint" />
          </mxGeometry>
        </mxCell>
        <mxCell id="qM5BzymKofZII1lBp1W7-127" value="" style="endArrow=none;html=1;rounded=0;fontSize=10;fontColor=#FF8000;strokeColor=#FF0000;strokeWidth=1;exitX=1;exitY=0.25;exitDx=0;exitDy=0;entryX=0;entryY=0.25;entryDx=0;entryDy=0;entryPerimeter=0;" parent="1" source="qM5BzymKofZII1lBp1W7-63" target="qM5BzymKofZII1lBp1W7-130" edge="1">
          <mxGeometry width="50" height="50" relative="1" as="geometry">
            <mxPoint x="770" y="270" as="sourcePoint" />
            <mxPoint x="1025" y="243" as="targetPoint" />
            <Array as="points">
              <mxPoint x="800" y="270" />
              <mxPoint x="800" y="250" />
            </Array>
          </mxGeometry>
        </mxCell>
        <mxCell id="qM5BzymKofZII1lBp1W7-128" value="" style="endArrow=none;html=1;rounded=0;fontSize=10;fontColor=#FF8000;strokeColor=#FF0000;strokeWidth=1;exitX=1;exitY=0.5;exitDx=0;exitDy=0;exitPerimeter=0;entryX=0.5;entryY=1;entryDx=0;entryDy=0;" parent="1" source="qM5BzymKofZII1lBp1W7-130" target="qM5BzymKofZII1lBp1W7-23" edge="1">
          <mxGeometry width="50" height="50" relative="1" as="geometry">
            <mxPoint x="1080" y="250" as="sourcePoint" />
            <mxPoint x="1050" y="150" as="targetPoint" />
            <Array as="points">
              <mxPoint x="1050" y="260" />
              <mxPoint x="1150" y="260" />
            </Array>
          </mxGeometry>
        </mxCell>
        <mxCell id="qM5BzymKofZII1lBp1W7-129" value="&lt;font color=&quot;#000000&quot;&gt;ALUOp&lt;/font&gt;" style="text;html=1;strokeColor=none;fillColor=none;align=center;verticalAlign=middle;whiteSpace=wrap;rounded=0;fontSize=10;fontColor=#FF8000;" parent="1" vertex="1">
          <mxGeometry x="820" y="690" width="60" height="30" as="geometry" />
        </mxCell>
        <mxCell id="qM5BzymKofZII1lBp1W7-130" value="" style="verticalLabelPosition=bottom;shadow=0;dashed=0;align=center;html=1;verticalAlign=top;shape=mxgraph.electrical.logic_gates.logic_gate;operation=or;fontSize=10;fontColor=#000000;" parent="1" vertex="1">
          <mxGeometry x="990" y="240" width="53" height="41" as="geometry" />
        </mxCell>
        <mxCell id="qM5BzymKofZII1lBp1W7-131" value="pcAdd2_or_EPC" style="text;html=1;align=center;verticalAlign=middle;resizable=0;points=[];autosize=1;strokeColor=none;fillColor=none;" parent="1" vertex="1">
          <mxGeometry x="440" y="-130" width="100" height="20" as="geometry" />
        </mxCell>
        <mxCell id="qM5BzymKofZII1lBp1W7-132" value="branch_jump_pc" style="text;html=1;align=center;verticalAlign=middle;resizable=0;points=[];autosize=1;strokeColor=none;fillColor=none;" parent="1" vertex="1">
          <mxGeometry x="1030" y="106.5" width="100" height="20" as="geometry" />
        </mxCell>
        <mxCell id="qM5BzymKofZII1lBp1W7-133" value="pcNew" style="text;html=1;align=center;verticalAlign=middle;resizable=0;points=[];autosize=1;strokeColor=none;fillColor=none;fontSize=10;fontColor=#000000;" parent="1" vertex="1">
          <mxGeometry x="1370" y="120" width="50" height="20" as="geometry" />
        </mxCell>
        <mxCell id="qM5BzymKofZII1lBp1W7-134" value="pcCurrent" style="text;html=1;align=center;verticalAlign=middle;resizable=0;points=[];autosize=1;strokeColor=none;fillColor=none;fontSize=10;fontColor=#000000;" parent="1" vertex="1">
          <mxGeometry x="160" y="43" width="60" height="20" as="geometry" />
        </mxCell>
        <mxCell id="qM5BzymKofZII1lBp1W7-136" value="&lt;font color=&quot;#3333ff&quot;&gt;reg_to_pc&lt;/font&gt;" style="text;html=1;strokeColor=none;fillColor=none;align=center;verticalAlign=middle;whiteSpace=wrap;rounded=0;" parent="1" vertex="1">
          <mxGeometry x="520" y="231" width="60" height="20" as="geometry" />
        </mxCell>
        <mxCell id="qM5BzymKofZII1lBp1W7-137" value="" style="endArrow=none;html=1;rounded=0;fontSize=10;fontColor=#FF8000;strokeColor=#FF0000;strokeWidth=1;exitX=1.011;exitY=0.176;exitDx=0;exitDy=0;entryX=0.5;entryY=1;entryDx=0;entryDy=0;exitPerimeter=0;" parent="1" source="qM5BzymKofZII1lBp1W7-63" target="qM5BzymKofZII1lBp1W7-171" edge="1">
          <mxGeometry width="50" height="50" relative="1" as="geometry">
            <mxPoint x="780" y="400" as="sourcePoint" />
            <mxPoint x="1060" y="210" as="targetPoint" />
            <Array as="points">
              <mxPoint x="620" y="250" />
              <mxPoint x="620" y="220" />
              <mxPoint x="825" y="220" />
              <mxPoint x="1010" y="220" />
            </Array>
          </mxGeometry>
        </mxCell>
        <mxCell id="qM5BzymKofZII1lBp1W7-138" value="" style="endArrow=classic;html=1;rounded=0;fontSize=10;fontColor=#FF8000;strokeColor=#000000;strokeWidth=1;entryX=-0.005;entryY=0.872;entryDx=0;entryDy=0;entryPerimeter=0;" parent="1" target="qM5BzymKofZII1lBp1W7-171" edge="1">
          <mxGeometry width="50" height="50" relative="1" as="geometry">
            <mxPoint x="890" y="650" as="sourcePoint" />
            <mxPoint x="990" y="170" as="targetPoint" />
            <Array as="points">
              <mxPoint x="890" y="600" />
              <mxPoint x="910" y="600" />
              <mxPoint x="910" y="200" />
              <mxPoint x="910" y="170" />
            </Array>
          </mxGeometry>
        </mxCell>
        <mxCell id="qM5BzymKofZII1lBp1W7-140" value="&lt;font color=&quot;#000000&quot;&gt;ALU_Out&lt;/font&gt;" style="text;html=1;align=center;verticalAlign=middle;resizable=0;points=[];autosize=1;strokeColor=none;fillColor=none;fontSize=10;fontColor=#FF8000;" parent="1" vertex="1">
          <mxGeometry x="930" y="95" width="60" height="20" as="geometry" />
        </mxCell>
        <mxCell id="qM5BzymKofZII1lBp1W7-144" value="writeback_data" style="text;html=1;align=center;verticalAlign=middle;resizable=0;points=[];autosize=1;strokeColor=none;fillColor=none;fontSize=10;fontColor=#000000;" parent="1" vertex="1">
          <mxGeometry x="1170" y="890" width="80" height="20" as="geometry" />
        </mxCell>
        <mxCell id="qM5BzymKofZII1lBp1W7-145" value="&lt;span style=&quot;font-family: &amp;#34;helvetica&amp;#34; ; font-size: 12px ; font-style: normal ; font-weight: 400 ; letter-spacing: normal ; text-align: center ; text-indent: 0px ; text-transform: none ; word-spacing: 0px ; background-color: rgb(248 , 249 , 250) ; display: inline ; float: none&quot;&gt;&lt;font color=&quot;#00ff00&quot;&gt;JAL, JALR&lt;/font&gt;&lt;/span&gt;" style="text;whiteSpace=wrap;html=1;fontSize=10;fontColor=#000000;" parent="1" vertex="1">
          <mxGeometry x="1345" y="495" width="80" height="30" as="geometry" />
        </mxCell>
        <mxCell id="qM5BzymKofZII1lBp1W7-146" value="" style="endArrow=classic;html=1;rounded=0;fontSize=10;fontColor=#00FF00;strokeColor=#000000;strokeWidth=1;exitX=0.5;exitY=0;exitDx=0;exitDy=0;entryX=0.75;entryY=1;entryDx=0;entryDy=0;" parent="1" target="qNigCdEiMOE3G2IUtMEy-42" edge="1">
          <mxGeometry width="50" height="50" relative="1" as="geometry">
            <mxPoint x="280" y="100" as="sourcePoint" />
            <mxPoint x="360" y="100" as="targetPoint" />
            <Array as="points">
              <mxPoint x="340" y="100" />
              <mxPoint x="340" y="-80" />
            </Array>
          </mxGeometry>
        </mxCell>
        <mxCell id="qM5BzymKofZII1lBp1W7-147" value="&lt;font color=&quot;#000000&quot;&gt;writeEn&lt;/font&gt;" style="text;html=1;strokeColor=none;fillColor=none;align=center;verticalAlign=middle;whiteSpace=wrap;rounded=0;fontSize=10;fontColor=#00FF00;" parent="1" vertex="1">
          <mxGeometry x="570" y="525" width="60" height="30" as="geometry" />
        </mxCell>
        <mxCell id="qM5BzymKofZII1lBp1W7-148" value="&lt;span style=&quot;font-family: &amp;#34;helvetica&amp;#34; ; font-style: normal ; font-weight: 400 ; letter-spacing: normal ; text-align: center ; text-indent: 0px ; text-transform: none ; word-spacing: 0px ; background-color: rgb(248 , 249 , 250) ; display: inline ; float: none&quot;&gt;&lt;font style=&quot;font-size: 8px&quot; color=&quot;#0000ff&quot;&gt;Branch_condition&lt;/font&gt;&lt;/span&gt;" style="text;whiteSpace=wrap;html=1;fontSize=8;fontColor=#FF0000;" parent="1" vertex="1">
          <mxGeometry x="865" y="261.5" width="40" height="19.5" as="geometry" />
        </mxCell>
        <mxCell id="qM5BzymKofZII1lBp1W7-149" value="extend_output" style="text;html=1;align=center;verticalAlign=middle;resizable=0;points=[];autosize=1;strokeColor=none;fillColor=none;fontSize=8;fontColor=#000000;" parent="1" vertex="1">
          <mxGeometry x="600" y="790" width="70" height="20" as="geometry" />
        </mxCell>
        <mxCell id="qM5BzymKofZII1lBp1W7-150" value="&lt;font style=&quot;font-size: 10px&quot;&gt;extend_output&lt;/font&gt;" style="text;html=1;align=center;verticalAlign=middle;resizable=0;points=[];autosize=1;strokeColor=none;fillColor=none;fontSize=8;fontColor=#000000;" parent="1" vertex="1">
          <mxGeometry x="670" y="140" width="80" height="20" as="geometry" />
        </mxCell>
        <mxCell id="qM5BzymKofZII1lBp1W7-151" value="&lt;font style=&quot;font-size: 4px&quot;&gt;extend_output&lt;/font&gt;" style="text;html=1;align=center;verticalAlign=middle;resizable=0;points=[];autosize=1;strokeColor=none;fillColor=none;fontSize=8;fontColor=#000000;" parent="1" vertex="1">
          <mxGeometry x="670" y="660" width="40" height="20" as="geometry" />
        </mxCell>
        <mxCell id="qM5BzymKofZII1lBp1W7-152" value="&lt;font style=&quot;font-size: 8px&quot;&gt;InA&lt;/font&gt;" style="text;html=1;strokeColor=none;fillColor=none;align=center;verticalAlign=middle;whiteSpace=wrap;rounded=0;fontSize=4;fontColor=#000000;" parent="1" vertex="1">
          <mxGeometry x="780" y="555" width="25" height="30" as="geometry" />
        </mxCell>
        <mxCell id="qM5BzymKofZII1lBp1W7-153" value="&lt;font style=&quot;font-size: 8px&quot;&gt;InB&lt;/font&gt;" style="text;html=1;strokeColor=none;fillColor=none;align=center;verticalAlign=middle;whiteSpace=wrap;rounded=0;fontSize=4;fontColor=#000000;" parent="1" vertex="1">
          <mxGeometry x="780" y="645" width="25" height="30" as="geometry" />
        </mxCell>
        <mxCell id="qM5BzymKofZII1lBp1W7-154" value="&lt;font style=&quot;font-size: 10px&quot;&gt;d&lt;/font&gt;" style="text;html=1;align=center;verticalAlign=middle;resizable=0;points=[];autosize=1;strokeColor=none;fillColor=none;fontSize=8;fontColor=#000000;" parent="1" vertex="1">
          <mxGeometry x="60" y="560" width="20" height="20" as="geometry" />
        </mxCell>
        <mxCell id="qM5BzymKofZII1lBp1W7-155" value="&lt;font style=&quot;font-size: 10px&quot;&gt;q&lt;/font&gt;" style="text;html=1;align=center;verticalAlign=middle;resizable=0;points=[];autosize=1;strokeColor=none;fillColor=none;fontSize=8;fontColor=#000000;" parent="1" vertex="1">
          <mxGeometry x="130" y="540" width="20" height="20" as="geometry" />
        </mxCell>
        <mxCell id="qM5BzymKofZII1lBp1W7-156" value="&lt;font color=&quot;#000000&quot;&gt;ALU_Out&lt;/font&gt;" style="text;html=1;align=center;verticalAlign=middle;resizable=0;points=[];autosize=1;strokeColor=none;fillColor=none;fontSize=10;fontColor=#FF8000;" parent="1" vertex="1">
          <mxGeometry x="1110" y="650" width="60" height="20" as="geometry" />
        </mxCell>
        <mxCell id="qM5BzymKofZII1lBp1W7-157" value="mem_read_data" style="text;html=1;align=center;verticalAlign=middle;resizable=0;points=[];autosize=1;strokeColor=none;fillColor=none;fontSize=10;fontColor=#000000;" parent="1" vertex="1">
          <mxGeometry x="1080" y="590" width="90" height="20" as="geometry" />
        </mxCell>
        <mxCell id="qM5BzymKofZII1lBp1W7-158" value="next_pc1" style="text;html=1;align=center;verticalAlign=middle;resizable=0;points=[];autosize=1;strokeColor=none;fillColor=none;" parent="1" vertex="1">
          <mxGeometry x="1260" y="560" width="60" height="20" as="geometry" />
        </mxCell>
        <mxCell id="qM5BzymKofZII1lBp1W7-159" value="&lt;span style=&quot;font-family: &amp;#34;helvetica&amp;#34; ; font-size: 12px ; font-style: normal ; font-weight: 400 ; letter-spacing: normal ; text-align: center ; text-indent: 0px ; text-transform: none ; word-spacing: 0px ; background-color: rgb(248 , 249 , 250) ; display: inline ; float: none&quot;&gt;&lt;font color=&quot;#00ff00&quot;&gt;JR, JALR&lt;/font&gt;&lt;/span&gt;" style="text;whiteSpace=wrap;html=1;fontSize=10;fontColor=#000000;" parent="1" vertex="1">
          <mxGeometry x="520" y="211" width="60" height="20" as="geometry" />
        </mxCell>
        <mxCell id="qM5BzymKofZII1lBp1W7-160" value="&lt;font style=&quot;font-size: 4px&quot;&gt;alu_input_mux&lt;/font&gt;" style="text;html=1;align=center;verticalAlign=middle;resizable=0;points=[];autosize=1;strokeColor=none;fillColor=none;fontSize=10;fontColor=#000000;" parent="1" vertex="1">
          <mxGeometry x="744" y="640" width="40" height="20" as="geometry" />
        </mxCell>
        <mxCell id="qM5BzymKofZII1lBp1W7-161" value="" style="endArrow=none;dashed=1;html=1;dashPattern=1 3;strokeWidth=2;rounded=0;" parent="1" edge="1">
          <mxGeometry width="50" height="50" relative="1" as="geometry">
            <mxPoint x="1110" y="210" as="sourcePoint" />
            <mxPoint x="1110" y="80" as="targetPoint" />
          </mxGeometry>
        </mxCell>
        <mxCell id="qM5BzymKofZII1lBp1W7-163" value="" style="endArrow=none;dashed=1;html=1;rounded=0;" parent="1" edge="1">
          <mxGeometry width="50" height="50" relative="1" as="geometry">
            <mxPoint x="740" y="80" as="sourcePoint" />
            <mxPoint x="1110" y="80" as="targetPoint" />
          </mxGeometry>
        </mxCell>
        <mxCell id="qM5BzymKofZII1lBp1W7-164" value="" style="endArrow=none;dashed=1;html=1;rounded=0;" parent="1" edge="1">
          <mxGeometry width="50" height="50" relative="1" as="geometry">
            <mxPoint x="740" y="120" as="sourcePoint" />
            <mxPoint x="740" y="80" as="targetPoint" />
          </mxGeometry>
        </mxCell>
        <mxCell id="qM5BzymKofZII1lBp1W7-166" value="" style="endArrow=none;dashed=1;html=1;rounded=0;" parent="1" edge="1">
          <mxGeometry width="50" height="50" relative="1" as="geometry">
            <mxPoint x="330" y="122" as="sourcePoint" />
            <mxPoint x="740" y="120" as="targetPoint" />
          </mxGeometry>
        </mxCell>
        <mxCell id="qM5BzymKofZII1lBp1W7-167" value="" style="endArrow=none;dashed=1;html=1;rounded=0;" parent="1" edge="1">
          <mxGeometry width="50" height="50" relative="1" as="geometry">
            <mxPoint x="330" y="720" as="sourcePoint" />
            <mxPoint x="330" y="120" as="targetPoint" />
          </mxGeometry>
        </mxCell>
        <mxCell id="qM5BzymKofZII1lBp1W7-168" value="" style="endArrow=none;dashed=1;html=1;rounded=0;" parent="1" edge="1">
          <mxGeometry width="50" height="50" relative="1" as="geometry">
            <mxPoint x="30" y="720" as="sourcePoint" />
            <mxPoint x="330" y="720" as="targetPoint" />
          </mxGeometry>
        </mxCell>
        <mxCell id="qM5BzymKofZII1lBp1W7-171" value="&lt;b&gt;0&lt;br&gt;MUX&lt;br&gt;1&lt;/b&gt;" style="rounded=1;whiteSpace=wrap;html=1;" parent="1" vertex="1">
          <mxGeometry x="995" y="123.5" width="30" height="53" as="geometry" />
        </mxCell>
        <mxCell id="qM5BzymKofZII1lBp1W7-173" value="" style="endArrow=classic;html=1;rounded=0;fontSize=8;exitX=1;exitY=0.5;exitDx=0;exitDy=0;entryX=-0.025;entryY=0.308;entryDx=0;entryDy=0;entryPerimeter=0;" parent="1" source="qM5BzymKofZII1lBp1W7-23" target="qM5BzymKofZII1lBp1W7-120" edge="1">
          <mxGeometry width="50" height="50" relative="1" as="geometry">
            <mxPoint x="1290" y="100" as="sourcePoint" />
            <mxPoint x="1340" y="50" as="targetPoint" />
          </mxGeometry>
        </mxCell>
        <mxCell id="qM5BzymKofZII1lBp1W7-174" value="&lt;font color=&quot;#3333ff&quot;&gt;Halt | stall&lt;/font&gt;" style="text;html=1;strokeColor=none;fillColor=none;align=center;verticalAlign=middle;whiteSpace=wrap;rounded=0;" parent="1" vertex="1">
          <mxGeometry x="1355" y="222" width="60" height="30" as="geometry" />
        </mxCell>
        <mxCell id="qM5BzymKofZII1lBp1W7-177" value="&lt;span style=&quot;color: rgb(0 , 0 , 0) ; font-family: &amp;#34;helvetica&amp;#34; ; font-size: 12px ; font-style: normal ; font-weight: 400 ; letter-spacing: normal ; text-align: center ; text-indent: 0px ; text-transform: none ; word-spacing: 0px ; background-color: rgb(248 , 249 , 250) ; display: inline ; float: none&quot;&gt;pcAdd2_or_branch_jump_pc&lt;/span&gt;" style="text;whiteSpace=wrap;html=1;fontSize=8;" parent="1" vertex="1">
          <mxGeometry x="1170" y="115" width="110" height="30" as="geometry" />
        </mxCell>
        <mxCell id="qM5BzymKofZII1lBp1W7-178" value="" style="endArrow=none;dashed=1;html=1;rounded=0;fontSize=8;" parent="1" edge="1">
          <mxGeometry width="50" height="50" relative="1" as="geometry">
            <mxPoint x="1490" as="sourcePoint" />
            <mxPoint x="1110" y="210" as="targetPoint" />
            <Array as="points">
              <mxPoint x="1490" y="210" />
            </Array>
          </mxGeometry>
        </mxCell>
        <mxCell id="MyGf08Exmg5tDNtChvb7-1" value="pcAdd2_add_extend_output" style="text;html=1;align=center;verticalAlign=middle;resizable=0;points=[];autosize=1;strokeColor=none;fillColor=none;fontSize=8;" parent="1" vertex="1">
          <mxGeometry x="880" y="126.5" width="120" height="20" as="geometry" />
        </mxCell>
        <mxCell id="MyGf08Exmg5tDNtChvb7-3" value="" style="endArrow=classic;html=1;rounded=0;exitX=1;exitY=0.5;exitDx=0;exitDy=0;entryX=0;entryY=0.813;entryDx=0;entryDy=0;entryPerimeter=0;" parent="1" source="qM5BzymKofZII1lBp1W7-171" target="qM5BzymKofZII1lBp1W7-23" edge="1">
          <mxGeometry width="50" height="50" relative="1" as="geometry">
            <mxPoint x="1050" y="190" as="sourcePoint" />
            <mxPoint x="1100" y="140" as="targetPoint" />
            <Array as="points">
              <mxPoint x="1060" y="150" />
            </Array>
          </mxGeometry>
        </mxCell>
        <mxCell id="qNigCdEiMOE3G2IUtMEy-8" value="" style="endArrow=classic;html=1;rounded=0;strokeColor=#FF0000;exitX=0.5;exitY=1;exitDx=0;exitDy=0;entryX=0.576;entryY=0.039;entryDx=0;entryDy=0;entryPerimeter=0;" edge="1" parent="1" source="qM5BzymKofZII1lBp1W7-63" target="qNigCdEiMOE3G2IUtMEy-38">
          <mxGeometry width="50" height="50" relative="1" as="geometry">
            <mxPoint x="180" y="820" as="sourcePoint" />
            <mxPoint x="660" y="990" as="targetPoint" />
            <Array as="points">
              <mxPoint x="475" y="510" />
              <mxPoint x="660" y="510" />
              <mxPoint x="660" y="970" />
              <mxPoint x="955" y="970" />
            </Array>
          </mxGeometry>
        </mxCell>
        <mxCell id="qNigCdEiMOE3G2IUtMEy-9" value="&lt;font color=&quot;#3333ff&quot;&gt;Exception_Flag&lt;/font&gt;" style="text;html=1;strokeColor=none;fillColor=none;align=center;verticalAlign=middle;whiteSpace=wrap;rounded=0;" vertex="1" parent="1">
          <mxGeometry x="490" y="484" width="90" height="30" as="geometry" />
        </mxCell>
        <mxCell id="qNigCdEiMOE3G2IUtMEy-12" value="Rs" style="text;html=1;strokeColor=none;fillColor=none;align=center;verticalAlign=middle;whiteSpace=wrap;rounded=0;" vertex="1" parent="1">
          <mxGeometry x="765" y="1005" width="60" height="30" as="geometry" />
        </mxCell>
        <mxCell id="qNigCdEiMOE3G2IUtMEy-19" value="" style="endArrow=classic;html=1;rounded=0;strokeColor=#FF0000;" edge="1" parent="1">
          <mxGeometry width="50" height="50" relative="1" as="geometry">
            <mxPoint x="492.5" y="509.8" as="sourcePoint" />
            <mxPoint x="290" y="510" as="targetPoint" />
            <Array as="points" />
          </mxGeometry>
        </mxCell>
        <mxCell id="qNigCdEiMOE3G2IUtMEy-20" value="stop incrementing PC" style="text;html=1;align=center;verticalAlign=middle;resizable=0;points=[];autosize=1;strokeColor=none;fillColor=none;" vertex="1" parent="1">
          <mxGeometry x="-130" y="480" width="130" height="20" as="geometry" />
        </mxCell>
        <mxCell id="qNigCdEiMOE3G2IUtMEy-23" value="" style="endArrow=classic;html=1;rounded=0;strokeColor=#000000;exitX=1;exitY=0.5;exitDx=0;exitDy=0;entryX=0.25;entryY=1;entryDx=0;entryDy=0;" edge="1" parent="1" source="qNigCdEiMOE3G2IUtMEy-35" target="qNigCdEiMOE3G2IUtMEy-42">
          <mxGeometry width="50" height="50" relative="1" as="geometry">
            <mxPoint x="980" y="1135" as="sourcePoint" />
            <mxPoint x="460" y="-110" as="targetPoint" />
            <Array as="points">
              <mxPoint x="1600" y="1060" />
              <mxPoint x="1600" y="-200" />
              <mxPoint x="280" y="-200" />
              <mxPoint x="280" y="-140" />
            </Array>
          </mxGeometry>
        </mxCell>
        <mxCell id="qNigCdEiMOE3G2IUtMEy-29" value="&lt;font color=&quot;#3333ff&quot;&gt;Exception_Flag&lt;/font&gt;" style="text;html=1;strokeColor=none;fillColor=none;align=center;verticalAlign=middle;whiteSpace=wrap;rounded=0;" vertex="1" parent="1">
          <mxGeometry x="860" y="970" width="90" height="30" as="geometry" />
        </mxCell>
        <mxCell id="qNigCdEiMOE3G2IUtMEy-30" value="" style="rounded=0;whiteSpace=wrap;html=1;" vertex="1" parent="1">
          <mxGeometry x="860" y="1015" width="120" height="200" as="geometry" />
        </mxCell>
        <mxCell id="qNigCdEiMOE3G2IUtMEy-31" value="&lt;b&gt;Read&lt;br&gt;register 1&lt;/b&gt;" style="text;html=1;strokeColor=none;fillColor=none;align=center;verticalAlign=middle;whiteSpace=wrap;rounded=0;" vertex="1" parent="1">
          <mxGeometry x="860" y="1015" width="60" height="30" as="geometry" />
        </mxCell>
        <mxCell id="qNigCdEiMOE3G2IUtMEy-32" value="&lt;b&gt;Read&lt;br&gt;register 2&lt;/b&gt;" style="text;html=1;strokeColor=none;fillColor=none;align=center;verticalAlign=middle;whiteSpace=wrap;rounded=0;" vertex="1" parent="1">
          <mxGeometry x="860" y="1065" width="60" height="30" as="geometry" />
        </mxCell>
        <mxCell id="qNigCdEiMOE3G2IUtMEy-33" value="&lt;b&gt;Write&lt;br&gt;register&lt;/b&gt;" style="text;html=1;strokeColor=none;fillColor=none;align=center;verticalAlign=middle;whiteSpace=wrap;rounded=0;" vertex="1" parent="1">
          <mxGeometry x="860" y="1120" width="60" height="30" as="geometry" />
        </mxCell>
        <mxCell id="qNigCdEiMOE3G2IUtMEy-34" value="&lt;b&gt;Write&lt;br&gt;data&lt;/b&gt;" style="text;html=1;strokeColor=none;fillColor=none;align=center;verticalAlign=middle;whiteSpace=wrap;rounded=0;" vertex="1" parent="1">
          <mxGeometry x="860" y="1175" width="60" height="30" as="geometry" />
        </mxCell>
        <mxCell id="qNigCdEiMOE3G2IUtMEy-35" value="&lt;b&gt;Read&lt;br&gt;data 1&lt;/b&gt;" style="text;html=1;strokeColor=none;fillColor=none;align=center;verticalAlign=middle;whiteSpace=wrap;rounded=0;" vertex="1" parent="1">
          <mxGeometry x="920" y="1045" width="60" height="30" as="geometry" />
        </mxCell>
        <mxCell id="qNigCdEiMOE3G2IUtMEy-36" value="&lt;b&gt;Read&lt;br&gt;data 2&lt;/b&gt;" style="text;html=1;strokeColor=none;fillColor=none;align=center;verticalAlign=middle;whiteSpace=wrap;rounded=0;" vertex="1" parent="1">
          <mxGeometry x="920" y="1105" width="60" height="30" as="geometry" />
        </mxCell>
        <mxCell id="qNigCdEiMOE3G2IUtMEy-37" value="&lt;b&gt;regFile&lt;/b&gt;" style="text;html=1;strokeColor=none;fillColor=none;align=center;verticalAlign=middle;whiteSpace=wrap;rounded=0;" vertex="1" parent="1">
          <mxGeometry x="920" y="1185" width="60" height="30" as="geometry" />
        </mxCell>
        <mxCell id="qNigCdEiMOE3G2IUtMEy-38" value="writeEn" style="text;html=1;align=center;verticalAlign=middle;resizable=0;points=[];autosize=1;strokeColor=none;fillColor=none;" vertex="1" parent="1">
          <mxGeometry x="920" y="1015" width="60" height="20" as="geometry" />
        </mxCell>
        <mxCell id="qNigCdEiMOE3G2IUtMEy-40" value="Exception_PC" style="text;html=1;align=center;verticalAlign=middle;resizable=0;points=[];autosize=1;strokeColor=none;fillColor=none;fontColor=#000000;" vertex="1" parent="1">
          <mxGeometry x="980" y="1035" width="90" height="20" as="geometry" />
        </mxCell>
        <mxCell id="qNigCdEiMOE3G2IUtMEy-42" value="1&lt;br&gt;&lt;br&gt;MUX&lt;br&gt;&lt;br&gt;0" style="shape=trapezoid;perimeter=trapezoidPerimeter;whiteSpace=wrap;html=1;fixedSize=1;fontColor=#000000;direction=south;" vertex="1" parent="1">
          <mxGeometry x="380" y="-170" width="60" height="120" as="geometry" />
        </mxCell>
        <mxCell id="qNigCdEiMOE3G2IUtMEy-43" value="Exception_PC" style="text;html=1;align=center;verticalAlign=middle;resizable=0;points=[];autosize=1;strokeColor=none;fillColor=none;fontColor=#000000;" vertex="1" parent="1">
          <mxGeometry x="280" y="-140" width="90" height="20" as="geometry" />
        </mxCell>
        <mxCell id="qNigCdEiMOE3G2IUtMEy-44" value="" style="endArrow=classic;html=1;rounded=0;fontColor=#000000;strokeColor=#000000;exitX=0.5;exitY=0;exitDx=0;exitDy=0;entryX=0.334;entryY=0.998;entryDx=0;entryDy=0;entryPerimeter=0;" edge="1" parent="1" source="qNigCdEiMOE3G2IUtMEy-42" target="qM5BzymKofZII1lBp1W7-8">
          <mxGeometry width="50" height="50" relative="1" as="geometry">
            <mxPoint x="500" y="-40" as="sourcePoint" />
            <mxPoint x="810" y="130" as="targetPoint" />
            <Array as="points">
              <mxPoint x="520" y="-110" />
              <mxPoint x="520" y="130" />
              <mxPoint x="600" y="130" />
            </Array>
          </mxGeometry>
        </mxCell>
        <mxCell id="qNigCdEiMOE3G2IUtMEy-45" value="" style="endArrow=classic;html=1;rounded=0;fontColor=#000000;strokeColor=#000000;entryX=0;entryY=0.5;entryDx=0;entryDy=0;" edge="1" parent="1" target="qNigCdEiMOE3G2IUtMEy-31">
          <mxGeometry width="50" height="50" relative="1" as="geometry">
            <mxPoint x="450" y="550" as="sourcePoint" />
            <mxPoint x="750" y="1160" as="targetPoint" />
            <Array as="points">
              <mxPoint x="450" y="1030" />
            </Array>
          </mxGeometry>
        </mxCell>
        <mxCell id="qNigCdEiMOE3G2IUtMEy-52" value="" style="endArrow=classic;html=1;rounded=0;fontColor=#000000;strokeColor=#FF0000;entryX=1;entryY=0.5;entryDx=0;entryDy=0;" edge="1" parent="1" target="qNigCdEiMOE3G2IUtMEy-42">
          <mxGeometry width="50" height="50" relative="1" as="geometry">
            <mxPoint x="410" y="510" as="sourcePoint" />
            <mxPoint x="460" y="70" as="targetPoint" />
          </mxGeometry>
        </mxCell>
        <mxCell id="qNigCdEiMOE3G2IUtMEy-54" value="&lt;font color=&quot;#3333ff&quot;&gt;RTI&lt;/font&gt;" style="text;html=1;strokeColor=none;fillColor=none;align=center;verticalAlign=middle;whiteSpace=wrap;rounded=0;" vertex="1" parent="1">
          <mxGeometry x="442.5" y="454" width="25" height="30" as="geometry" />
        </mxCell>
        <mxCell id="qNigCdEiMOE3G2IUtMEy-58" value="" style="endArrow=classic;html=1;rounded=0;fontColor=#000000;strokeColor=#FF0000;entryX=0;entryY=0.75;entryDx=0;entryDy=0;entryPerimeter=0;exitX=-0.043;exitY=0.945;exitDx=0;exitDy=0;exitPerimeter=0;" edge="1" parent="1" source="qM5BzymKofZII1lBp1W7-63" target="qNigCdEiMOE3G2IUtMEy-66">
          <mxGeometry width="50" height="50" relative="1" as="geometry">
            <mxPoint x="420" y="500" as="sourcePoint" />
            <mxPoint x="300" y="500" as="targetPoint" />
            <Array as="points">
              <mxPoint x="290" y="465" />
              <mxPoint x="290" y="490" />
            </Array>
          </mxGeometry>
        </mxCell>
        <mxCell id="qNigCdEiMOE3G2IUtMEy-59" value="en" style="text;html=1;align=center;verticalAlign=middle;resizable=0;points=[];autosize=1;strokeColor=none;fillColor=none;fontColor=#000000;" vertex="1" parent="1">
          <mxGeometry x="90" y="530" width="30" height="20" as="geometry" />
        </mxCell>
        <mxCell id="qNigCdEiMOE3G2IUtMEy-61" value="" style="verticalLabelPosition=bottom;shadow=0;dashed=0;align=center;html=1;verticalAlign=top;shape=mxgraph.electrical.logic_gates.logic_gate;operation=xor;negating=1;negSize=0.15;fontColor=#000000;direction=south;" vertex="1" parent="1">
          <mxGeometry x="-180" y="480" width="35" height="65" as="geometry" />
        </mxCell>
        <mxCell id="qNigCdEiMOE3G2IUtMEy-63" value="" style="verticalLabelPosition=bottom;shadow=0;dashed=0;align=center;html=1;verticalAlign=top;shape=mxgraph.electrical.logic_gates.logic_gate;operation=xor;fontColor=#000000;direction=west;" vertex="1" parent="1">
          <mxGeometry x="-180" y="412" width="65" height="40" as="geometry" />
        </mxCell>
        <mxCell id="qNigCdEiMOE3G2IUtMEy-64" value="" style="verticalLabelPosition=bottom;shadow=0;dashed=0;align=center;html=1;verticalAlign=top;shape=mxgraph.electrical.logic_gates.inverter_2;fontColor=#000000;direction=west;" vertex="1" parent="1">
          <mxGeometry x="230" y="495" width="60" height="30" as="geometry" />
        </mxCell>
        <mxCell id="qNigCdEiMOE3G2IUtMEy-66" value="" style="verticalLabelPosition=bottom;shadow=0;dashed=0;align=center;html=1;verticalAlign=top;shape=mxgraph.electrical.logic_gates.logic_gate;operation=and;fontColor=#000000;direction=west;" vertex="1" parent="1">
          <mxGeometry x="180" y="480" width="45" height="40" as="geometry" />
        </mxCell>
        <mxCell id="qNigCdEiMOE3G2IUtMEy-67" value="" style="endArrow=none;html=1;rounded=0;fontColor=#000000;strokeColor=#FF0000;exitX=0;exitY=0.25;exitDx=0;exitDy=0;exitPerimeter=0;entryX=1;entryY=0.5;entryDx=0;entryDy=0;entryPerimeter=0;" edge="1" parent="1" source="qNigCdEiMOE3G2IUtMEy-66" target="qNigCdEiMOE3G2IUtMEy-64">
          <mxGeometry width="50" height="50" relative="1" as="geometry">
            <mxPoint x="210" y="520" as="sourcePoint" />
            <mxPoint x="260" y="470" as="targetPoint" />
          </mxGeometry>
        </mxCell>
        <mxCell id="qNigCdEiMOE3G2IUtMEy-68" value="" style="endArrow=classic;html=1;rounded=0;fontColor=#000000;strokeColor=#FF0000;entryX=0.527;entryY=-0.06;entryDx=0;entryDy=0;entryPerimeter=0;exitX=1;exitY=0.5;exitDx=0;exitDy=0;exitPerimeter=0;" edge="1" parent="1" source="qNigCdEiMOE3G2IUtMEy-66" target="qNigCdEiMOE3G2IUtMEy-59">
          <mxGeometry width="50" height="50" relative="1" as="geometry">
            <mxPoint x="90" y="530" as="sourcePoint" />
            <mxPoint x="140" y="480" as="targetPoint" />
            <Array as="points">
              <mxPoint x="106" y="499" />
            </Array>
          </mxGeometry>
        </mxCell>
      </root>
    </mxGraphModel>
  </diagram>
</mxfile>
